<?xml version="1.0" standalone="no"?>
<!DOCTYPE svg PUBLIC "-//W3C//DTD SVG 20010904//EN"
 "http://www.w3.org/TR/2001/REC-SVG-20010904/DTD/svg10.dtd">
<svg version="1.0" xmlns="http://www.w3.org/2000/svg"
 width="1280.000000pt" height="1280.000000pt" viewBox="0 0 1280.000000 1280.000000"
 preserveAspectRatio="xMidYMid meet">

<g transform="translate(0.000000,1280.000000) scale(0.100000,-0.100000)"
fill="#000000" stroke="none">
<path d="M6010 8118 c-3 -3 -104 -9 -225 -13 -342 -12 -318 -10 -520 -40 -11
-1 -49 -22 -84 -45 -50 -33 -69 -41 -92 -36 -26 5 -32 0 -73 -57 -130 -182
-289 -493 -305 -597 -7 -44 -7 -68 0 -75 13 -13 175 -12 567 3 360 14 1662 15
1982 2 124 -5 310 -12 414 -16 l188 -7 -15 30 c-9 16 -22 35 -31 42 -12 10
-17 9 -26 -8 -6 -12 -16 -21 -22 -21 -7 0 -7 4 1 13 6 8 17 32 25 55 16 45 19
37 -90 268 -25 52 -32 81 -14 54 8 -11 9 -7 4 13 -9 39 -59 142 -95 196 l-30
43 30 -23 c16 -13 30 -30 30 -36 1 -7 6 -13 11 -13 6 0 10 6 10 13 0 31 122
-208 178 -348 44 -114 62 -178 62 -229 0 -25 5 -36 15 -36 27 0 34 31 18 84
-36 120 -221 506 -294 613 -26 37 -27 43 -12 43 15 0 16 2 3 10 -22 14 -27 12
-33 -11 -4 -16 -12 -20 -38 -17 -18 2 -34 10 -36 18 -4 13 -3 13 6 0 26 -37 7
7 -24 56 -28 44 -65 74 -90 74 -12 0 32 -64 63 -91 20 -18 28 -29 17 -25 -11
4 -33 10 -50 13 -16 3 -32 9 -35 13 -3 4 -30 9 -60 11 -30 2 -57 6 -60 9 -8 9
-319 41 -489 51 -201 11 -774 23 -781 17z"/>
<path d="M5044 8026 c-117 -79 -228 -239 -386 -559 -32 -65 -56 -123 -53 -128
4 -5 1 -17 -4 -26 -10 -17 -10 -16 -11 2 -1 16 -4 15 -18 -10 -17 -29 -18 -30
-77 -24 -33 3 -53 6 -44 7 23 3 30 25 22 79 -4 34 -3 44 5 39 14 -8 15 3 3 23
-5 7 -14 10 -20 7 -15 -9 -15 36 0 51 23 23 -3 33 -89 33 -90 0 -190 -20 -229
-45 -12 -8 -26 -31 -32 -51 -10 -36 -5 -68 9 -59 12 7 18 -43 7 -54 -10 -10 4
-15 63 -24 14 -3 4 -5 -22 -6 -27 0 -48 -3 -48 -6 0 -4 7 -19 15 -35 22 -43
69 -55 231 -55 l142 0 -3 -32 c-4 -35 1 -39 24 -24 9 6 22 6 33 0 12 -7 18 -6
18 1 0 6 8 10 17 8 11 -2 18 4 18 15 0 10 7 22 15 27 12 7 8 11 -17 16 -18 4
-34 9 -34 13 -7 28 -6 71 2 71 5 0 9 -4 9 -10 0 -5 9 -10 20 -10 11 0 20 6 20
13 0 8 3 8 9 -2 5 -8 7 -20 4 -28 -6 -16 19 -17 35 -1 9 9 8 15 -3 28 -21 24
-7 66 86 248 114 224 226 407 287 470 44 46 62 72 49 72 -1 0 -25 -15 -53 -34z
m-399 -708 c-14 -21 -15 -21 -12 -3 4 29 20 52 25 37 2 -6 -4 -22 -13 -34z"/>
<path d="M5095 8000 c-16 -7 -17 -9 -3 -9 9 -1 20 4 23 9 7 11 7 11 -20 0z"/>
<path d="M8166 7495 c-14 -14 -16 -33 -13 -121 l4 -104 -43 0 c-35 0 -44 -4
-44 -17 -1 -10 -14 9 -30 42 -24 51 -28 55 -23 25 4 -19 10 -36 14 -38 4 -2 6
-9 3 -16 -3 -7 2 -26 11 -42 19 -36 19 -48 1 -41 -14 5 -36 -10 -36 -25 0 -4
12 -8 26 -8 17 0 24 -4 21 -13 -3 -9 4 -12 25 -11 37 3 42 8 29 31 -9 19 -4
19 177 19 168 -1 191 1 226 19 47 24 67 64 36 72 -24 6 -16 23 11 23 18 0 20
6 17 53 -3 44 -6 52 -22 49 -13 -2 -16 0 -10 10 5 8 -2 6 -18 -4 -18 -12 -29
-14 -33 -7 -5 7 -11 6 -21 -2 -11 -9 -14 -8 -14 4 0 9 -9 17 -20 19 -12 2 -19
7 -18 11 2 5 -12 17 -31 26 -39 21 -29 33 26 33 26 0 32 3 24 12 -7 6 -60 12
-135 14 -105 3 -125 2 -140 -13z"/>
<path d="M2347 7315 c-161 -12 -232 -23 -307 -47 -8 -3 -12 -3 -7 -1 20 12 3
20 -22 10 -17 -6 -27 -16 -24 -24 3 -7 1 -13 -5 -13 -6 0 -12 5 -14 10 -4 13
-96 -47 -183 -120 -58 -48 -177 -172 -255 -266 -43 -51 -52 -52 -50 -3 3 64 1
66 -19 40 -12 -16 -24 -22 -35 -18 -23 9 -20 26 9 39 46 21 28 31 -45 24 -110
-11 -169 -32 -176 -62 -4 -14 -1 -37 6 -52 8 -15 12 -31 11 -36 -1 -5 8 -19
19 -31 16 -17 39 -25 83 -31 34 -4 55 -9 47 -12 -8 -3 -26 -14 -40 -25 -19
-16 -21 -18 -5 -12 11 4 52 15 90 25 39 10 63 19 54 19 -34 2 -27 29 18 72 44
43 45 43 29 12 -21 -43 -20 -53 7 -53 16 0 18 -3 8 -9 -7 -5 -9 -11 -4 -14 13
-8 403 -11 411 -3 3 4 250 6 548 5 298 0 548 2 555 6 7 5 17 1 24 -9 10 -13
45 -18 201 -27 254 -14 382 -16 488 -5 73 8 86 11 72 21 -22 16 -20 24 4 18
47 -12 41 72 -19 254 -47 144 -128 292 -151 278 -5 -3 -13 3 -19 12 -9 16 -11
15 -11 -7 -1 -14 -4 -19 -7 -12 -2 6 -9 9 -15 6 -6 -4 -13 -2 -17 3 -27 39
-886 65 -1254 38z m-537 -188 c0 -1 -24 -25 -52 -52 l-53 -50 50 53 c46 48 55
57 55 49z m-360 -321 c0 -2 -7 -6 -15 -10 -8 -3 -15 -1 -15 4 0 6 7 10 15 10
8 0 15 -2 15 -4z"/>
<path d="M7973 7310 c4 -14 7 -31 7 -37 0 -7 4 -13 9 -13 6 0 6 12 1 31 -11
38 -26 55 -17 19z"/>
<path d="M8947 7218 c-79 -98 -207 -385 -207 -464 0 -39 12 -55 30 -44 10 6
11 10 3 10 -13 0 -8 75 7 95 4 6 26 60 50 120 51 131 102 236 124 254 25 21
19 3 -33 -104 -59 -119 -119 -276 -123 -325 -3 -35 -3 -35 41 -38 l44 -3 -34
-21 -34 -21 25 -10 c14 -5 37 -15 52 -23 34 -18 49 -18 42 1 -5 12 14 14 120
14 69 0 144 5 168 10 24 6 144 13 268 15 283 7 430 14 500 26 102 16 387 2
433 -22 10 -5 17 -5 17 0 0 5 14 16 31 24 29 14 19 16 -158 23 -240 10 -889 5
-1223 -9 -105 -4 -108 -4 -30 4 47 4 177 11 290 15 113 3 211 8 218 11 16 5
834 4 952 -1 47 -2 135 -7 196 -10 88 -5 111 -4 112 7 1 7 4 64 7 126 5 121 9
136 31 128 21 -8 18 -2 -21 40 -45 51 -45 62 0 18 20 -19 40 -32 44 -29 5 2
15 -3 22 -13 13 -15 12 -16 -4 -3 -15 12 -17 12 -11 -3 4 -10 12 -15 19 -12
16 6 139 -145 189 -231 21 -35 43 -63 51 -63 25 0 6 29 -111 175 -173 215
-300 336 -339 321 -7 -2 -28 -1 -47 4 -131 35 -699 54 -1157 40 -196 -6 -367
-13 -381 -16 -20 -4 -22 -3 -10 5 13 9 12 11 -6 11 -12 0 -27 -7 -34 -15 -7
-8 -17 -15 -22 -15 -6 0 -8 7 -4 15 3 8 1 15 -4 15 -5 0 -12 -9 -15 -20 -9
-29 -23 -25 -17 5 7 39 -22 31 -61 -17z m1934 -155 c13 -16 12 -17 -3 -4 -10
7 -18 15 -18 17 0 8 8 3 21 -13z"/>
<path d="M3898 7152 c49 -48 108 -116 131 -151 l41 -64 -30 -18 c-32 -20 -41
-44 -37 -99 2 -34 1 -35 -32 -36 -19 0 -36 -5 -39 -12 -6 -18 -22 -14 -23 6
-1 9 -5 -3 -10 -28 -5 -26 -5 -48 0 -53 17 -17 0 -37 -30 -37 l-30 0 18 -31
c29 -50 37 -63 60 -94 l22 -30 -11 31 c-10 28 -8 35 17 68 21 27 26 43 22 65
-8 38 12 54 57 49 32 -4 35 -2 46 36 9 31 9 41 -2 48 -10 8 -9 9 3 5 11 -4 24
12 47 59 l32 64 -24 0 c-18 0 -31 12 -52 48 -15 26 -27 48 -26 50 2 1 -10 14
-25 27 l-28 24 115 1 c184 1 300 13 300 31 0 13 -15 11 -55 -5 -19 -8 -35 -11
-35 -6 0 5 -13 8 -30 6 -16 -2 -30 1 -30 5 0 5 -5 9 -11 9 -5 0 -8 -4 -5 -8 2
-4 -20 -5 -50 -2 -30 3 -54 3 -54 -1 0 -4 -17 -6 -37 -4 -21 2 -51 3 -66 4
-16 1 -26 5 -23 10 3 5 24 7 47 4 29 -4 44 -2 50 8 6 9 9 10 9 2 0 -8 11 -11
31 -8 45 6 45 11 2 19 -21 3 -51 8 -66 11 -17 4 -26 2 -23 -4 4 -5 2 -13 -4
-16 -6 -4 -10 -3 -9 2 4 22 -4 23 -32 3 -20 -15 -28 -28 -24 -39 3 -9 -22 11
-57 45 -63 61 -105 94 -121 94 -4 0 32 -39 81 -88z m132 -322 c0 -5 -2 -10 -4
-10 -3 0 -8 5 -11 10 -3 6 -1 10 4 10 6 0 11 -4 11 -10z m-73 -95 c9 -25 -4
-29 -17 -6 -7 15 -7 21 0 21 6 0 13 -7 17 -15z"/>
<path d="M5000 7230 c-80 -3 -139 -7 -132 -8 22 -3 2 -22 -24 -22 -25 0 -33
15 -11 23 6 3 -1 6 -18 6 -16 0 -37 -3 -44 -8 -9 -6 -22 -6 -33 0 -14 7 -16 6
-12 -6 9 -22 65 -35 199 -45 148 -11 579 -2 620 14 22 8 219 10 700 6 619 -5
673 -4 710 12 53 23 62 22 61 -4 -1 -21 5 -23 74 -30 124 -10 499 -16 590 -8
47 4 75 8 63 8 -12 1 -23 7 -25 14 -5 13 -116 21 -608 45 -148 7 -1947 10
-2110 3z"/>
<path d="M8823 7178 c-56 -53 -193 -235 -193 -257 0 -18 18 -13 25 8 21 67
214 299 237 285 4 -3 8 0 8 5 0 22 -23 10 -77 -41z"/>
<path d="M3815 7200 c10 -11 20 -20 23 -20 3 0 -3 9 -13 20 -10 11 -20 20 -23
20 -3 0 3 -9 13 -20z"/>
<path d="M7871 7200 c-13 -11 -37 -21 -55 -21 -25 -1 -27 -3 -7 -6 28 -6 113
25 105 38 -8 13 -16 11 -43 -11z"/>
<path d="M4710 7180 c8 -5 26 -10 39 -10 32 0 24 6 -19 14 -25 4 -31 3 -20 -4z"/>
<path d="M5593 7131 c-10 -11 -24 -26 -30 -35 -11 -12 -48 -15 -235 -14 -123
1 -282 0 -355 -2 -107 -2 -136 0 -156 13 -18 12 -33 14 -63 7 -21 -5 -40 -14
-42 -19 -2 -6 -9 -11 -15 -11 -7 0 -25 -12 -40 -26 -15 -14 -38 -26 -50 -27
-38 -3 -161 15 -174 25 -7 6 -13 7 -14 2 0 -5 -4 0 -9 11 -7 15 -9 16 -9 4 -1
-12 -9 -16 -32 -14 -35 2 -78 -33 -140 -115 -56 -72 -109 -209 -109 -279 0
-24 -9 -45 -27 -65 -16 -17 -20 -24 -11 -17 9 7 23 9 29 5 8 -5 9 -3 4 6 -5 9
-4 11 4 6 6 -4 10 -15 7 -24 -13 -44 -27 -329 -17 -353 9 -24 8 -26 -11 -21
-12 3 -30 25 -44 56 l-23 51 6 -62 c4 -44 2 -63 -6 -63 -7 0 -11 28 -11 86 0
121 -23 158 -53 87 -24 -57 -25 -66 -14 -88 6 -11 12 -33 13 -50 1 -16 6 -41
9 -55 7 -24 7 -24 -7 -6 -14 18 -15 17 -22 -14 -7 -38 -25 -233 -29 -330 -2
-36 -4 -7 -5 64 -1 71 -4 127 -7 124 -10 -9 -24 -119 -35 -278 -7 -85 -16
-162 -21 -170 -21 -33 23 407 45 451 19 38 21 132 4 147 -7 5 -50 20 -96 32
-45 12 -84 26 -87 30 -3 5 4 6 14 3 16 -4 22 3 30 34 14 49 14 80 0 89 -9 5
-10 -1 -5 -22 5 -21 4 -25 -3 -14 -6 8 -10 32 -9 52 1 43 -16 68 -46 67 -20
-1 -20 -2 -1 -6 11 -3 24 -8 28 -13 13 -11 -20 -128 -49 -178 -27 -45 -86 -84
-104 -66 -5 5 1 10 17 11 14 0 32 8 41 17 14 13 13 14 -5 10 -24 -7 -40 11
-18 20 8 3 15 18 15 33 0 23 -5 28 -27 30 -16 1 -44 5 -64 8 -25 5 -44 2 -60
-8 -31 -20 -243 -84 -314 -95 -41 -7 -58 -6 -66 4 -14 17 -9 19 116 49 164 39
278 76 295 96 8 10 32 32 54 48 21 17 35 31 29 31 -5 0 -15 -6 -22 -12 -11
-11 -12 -10 -6 0 4 7 17 17 30 22 24 9 54 50 36 50 -18 0 2 39 24 47 25 9 119
119 108 126 -5 3 -33 1 -64 -3 -52 -7 -128 -44 -144 -70 -3 -5 -11 -10 -18
-10 -6 0 4 13 23 29 l35 29 -40 16 c-30 13 -93 19 -265 26 -124 5 -244 12
-267 16 -29 4 -51 2 -72 -9 -28 -14 -30 -14 -22 1 11 20 40 17 -299 27 -237 7
-676 -5 -699 -19 -5 -3 -119 -8 -253 -10 -310 -6 -286 -4 -336 -23 -28 -10
-47 -25 -53 -40 -5 -13 -13 -23 -18 -23 -13 0 -51 49 -51 65 0 9 -13 12 -42
10 -49 -4 -66 -21 -126 -125 -60 -103 -82 -164 -88 -243 l-7 -74 -44 -27 c-39
-23 -44 -30 -41 -59 l3 -32 -75 -6 c-41 -4 -140 -7 -220 -9 -104 -1 -136 -4
-115 -11 16 -5 114 -6 218 -3 l188 6 -2 -84 c-2 -90 10 -128 41 -128 38 0 50
-10 39 -32 -8 -15 -18 -19 -45 -16 -19 2 -34 0 -34 -4 0 -7 40 -13 63 -9 12 2
8 -37 -7 -74 -8 -19 -11 -37 -6 -40 11 -7 2 -35 -12 -35 -5 0 -6 6 -3 13 4 6
-3 1 -14 -13 -27 -33 -26 -37 9 -55 31 -16 40 -27 18 -22 -25 5 -32 -68 -15
-155 9 -45 14 -84 12 -86 -2 -3 -26 -7 -52 -9 -26 -3 -53 -10 -59 -15 -7 -5
-70 -17 -140 -28 -71 -10 -175 -28 -231 -39 -74 -15 -145 -22 -265 -23 l-163
-2 115 -5 115 -6 -112 -20 c-103 -18 -113 -21 -113 -41 0 -22 2 -22 287 -30
425 -13 1756 -10 2233 4 463 14 914 36 1065 52 55 6 157 17 227 24 150 15 163
22 142 72 -14 34 -11 74 6 74 4 0 11 15 14 33 30 144 39 206 45 297 4 65 9
100 15 92 4 -8 5 -62 1 -120 -5 -59 -7 -137 -6 -174 1 -38 -2 -68 -8 -68 -5 0
-11 -18 -13 -40 -2 -28 0 -40 9 -40 10 0 13 -32 13 -134 l0 -135 -42 -5 c-24
-3 -115 -10 -203 -16 -176 -11 -335 -36 -468 -75 -48 -14 -95 -25 -105 -26
-13 0 -12 -3 6 -12 21 -9 -5 -21 -220 -95 l-243 -85 -275 -7 c-151 -4 -277 -8
-280 -10 -17 -9 136 -18 330 -19 124 -1 231 -5 238 -10 10 -6 -10 -18 -65 -41
-157 -65 -173 -73 -173 -86 0 -21 36 -32 163 -49 158 -21 933 -54 1587 -66
595 -12 1744 -6 2080 11 113 5 342 14 510 20 472 16 1130 73 1187 103 15 8 80
22 143 30 146 20 224 43 216 63 -3 8 1 17 8 20 8 3 23 22 33 42 16 33 19 75
23 372 4 198 7 267 8 169 l2 -166 403 -11 c731 -21 1261 -23 1812 -7 535 16
784 32 822 53 12 7 34 12 49 12 21 0 25 3 17 11 -8 8 -5 17 13 33 27 23 59
132 68 232 3 32 8 73 12 90 l6 31 -49 -8 c-26 -4 -59 -8 -73 -8 l-25 -1 25 20
c33 25 74 34 99 20 12 -6 21 -7 22 -3 5 49 4 80 -1 88 -4 6 -10 26 -13 45 -4
19 -9 46 -12 60 -4 18 -1 15 11 -10 l18 -35 8 110 c9 121 7 137 -19 129 -14
-4 -14 -3 2 7 24 16 129 14 345 -7 288 -27 813 -53 755 -38 -34 10 -41 24 -12
24 l27 0 0 95 0 95 -127 2 c-71 1 -141 3 -158 4 -16 1 -66 3 -110 4 -63 1
-557 20 -637 23 -10 1 -14 5 -10 9 4 4 109 3 232 -2 124 -5 357 -12 518 -16
l292 -6 0 61 0 61 -347 1 c-391 1 -563 6 -572 15 -3 3 179 4 404 1 425 -5 515
-2 515 17 0 8 -155 11 -555 11 -422 0 -555 -3 -555 -12 0 -6 15 -14 33 -16
l32 -4 -31 -1 c-27 -2 -31 -5 -27 -26 3 -15 13 -27 27 -29 20 -4 20 -4 -1 -6
-31 -2 -32 -41 -1 -41 12 0 18 -3 14 -7 -4 -5 -12 -8 -18 -8 -6 0 -12 -10 -14
-21 -3 -15 3 -24 19 -29 19 -6 19 -8 5 -12 -19 -5 -21 -12 -18 -56 2 -31 -15
-57 -36 -57 -9 0 -15 20 -20 60 -4 33 -11 63 -15 66 -5 3 -9 -1 -9 -9 0 -19
-32 -47 -54 -47 -14 0 -17 5 -12 25 4 16 2 25 -6 25 -6 0 0 13 15 28 15 15 27
34 27 42 0 9 -6 6 -16 -8 -8 -12 -19 -20 -24 -17 -5 3 -14 -3 -20 -14 -14 -28
-58 -71 -62 -62 -5 13 -68 22 -68 10 0 -8 -5 -8 -14 1 -12 9 -36 8 -112 -4
-53 -8 -101 -13 -105 -10 -15 9 -10 26 6 20 8 -3 18 1 22 8 9 15 93 38 93 26
0 -5 -6 -11 -12 -13 -20 -8 92 4 137 14 22 5 53 12 69 14 16 2 30 6 31 7 1 2
0 21 -3 43 -5 36 -6 37 -13 15 -7 -24 -7 -24 -8 -2 -1 18 -7 22 -31 22 -20 0
-28 -4 -24 -13 3 -9 -8 -13 -43 -12 -43 0 -47 -2 -48 -24 0 -13 -6 -26 -12
-28 -8 -3 -13 4 -13 16 0 12 -4 21 -10 21 -5 0 -10 -6 -10 -14 0 -8 -16 -17
-37 -21 -21 -4 -48 -9 -59 -11 -17 -3 -21 1 -20 19 1 17 16 29 66 54 36 17 71
37 78 43 28 25 -1 22 -71 -9 l-74 -33 -39 21 c-46 25 -80 29 -50 6 11 -8 15
-15 9 -15 -7 0 -33 -18 -59 -41 -47 -41 -48 -41 -108 -35 -34 4 -162 13 -286
21 -124 8 -240 19 -259 24 -19 6 -38 8 -42 5 -5 -3 -9 0 -9 5 0 6 -7 11 -16
11 -8 0 -22 7 -30 15 -9 8 -26 15 -40 15 -28 0 -33 24 -6 35 21 10 41 12 117
15 85 3 83 4 96 -42 l12 -43 10 35 c5 19 11 41 13 48 3 11 28 13 122 9 l117
-5 -121 10 -122 11 -5 131 c-4 118 -20 206 -35 192 -11 -12 -13 -74 -3 -146 6
-41 13 -99 16 -128 l6 -52 -222 4 -222 5 -30 51 c-20 36 -32 48 -38 39 -6 -10
-13 -10 -34 -1 -14 7 -53 12 -85 12 -46 0 -74 7 -122 30 -40 20 -85 33 -123
36 -83 7 -125 15 -125 24 0 4 -8 11 -17 15 -28 11 -182 27 -241 26 -40 -1 -61
4 -84 21 -20 14 -51 23 -87 26 l-55 5 71 -77 c63 -69 146 -177 199 -260 l19
-30 -58 37 c-31 20 -74 48 -95 61 -24 15 -59 55 -90 103 -81 124 -83 125 -133
126 -33 0 -51 6 -73 26 -27 24 -26 22 6 -19 19 -25 43 -58 52 -75 17 -30 17
-30 -1 -5 -28 39 -70 80 -82 80 -6 0 -39 -28 -74 -63 -34 -34 -75 -72 -91 -84
l-29 -22 12 -83 c7 -46 16 -105 21 -133 9 -51 25 -253 35 -450 3 -60 8 -136
11 -167 2 -32 1 -58 -4 -58 -14 0 -22 63 -22 167 0 118 -17 369 -34 503 -13
101 -31 160 -47 160 -17 0 -22 -130 -15 -418 8 -341 12 -324 -66 -247 l-38 36
-1 -58 c-1 -62 -16 -165 -18 -123 0 14 5 99 13 190 24 276 30 400 18 400 -6 0
-15 -12 -21 -27 -8 -23 -9 -18 -4 27 3 32 0 67 -7 85 -13 33 -11 36 -41 -44
-10 -27 -15 -31 -23 -20 -6 8 -17 14 -25 14 -8 0 -16 6 -19 14 -3 8 0 11 6 7
17 -10 0 251 -19 284 -6 11 -8 11 -9 2 0 -7 -5 -10 -11 -6 -7 4 -26 7 -43 6
l-31 -1 25 20 25 20 -25 -6 c-43 -9 -89 -13 -95 -7 -3 3 8 11 23 18 24 10 30
19 35 55 3 24 3 56 0 71 -4 20 -1 28 8 28 12 0 12 2 1 9 -9 6 0 12 32 20 56
14 103 14 109 1 3 -6 4 -5 3 2 -2 9 -25 13 -79 13 -43 0 -73 2 -67 3 21 7 9
22 -19 22 -16 0 -34 7 -41 15 -9 10 -16 12 -24 5 -18 -14 -70 -7 -78 10 -5 12
-8 10 -14 -8 -5 -17 -10 -20 -19 -12 -8 6 -33 11 -56 12 l-43 0 29 24 c17 13
35 24 41 24 7 0 26 14 44 30 l33 30 -7 -32 c-5 -31 -5 -32 9 -14 8 11 15 24
15 29 0 4 4 6 9 2 6 -3 19 5 30 17 15 15 21 18 22 7 1 -23 26 52 33 102 7 46
7 46 -21 45 -25 -1 -28 3 -31 34 -2 19 -8 39 -13 45 -6 6 -7 -2 -4 -20 3 -17
1 -43 -4 -60 -5 -16 -10 -24 -10 -17 -1 15 -63 16 -176 3 -58 -7 -100 -20
-153 -45 -40 -20 -79 -36 -87 -36 -8 0 -14 -3 -13 -7 3 -17 -23 -64 -32 -58
-15 10 -22 -18 -11 -47 9 -23 8 -25 -12 -21 l-22 4 22 -13 c21 -12 21 -14 5
-24 -18 -11 -78 -11 -89 -1 -10 11 -25 8 -18 -3 9 -15 0 -12 -22 8 -29 25 -37
56 -17 72 13 12 17 11 25 -1 7 -11 9 -11 9 4 0 9 6 16 13 15 6 -2 11 3 9 11
-1 7 4 18 13 25 9 6 18 20 19 31 2 11 9 19 16 17 7 -2 10 3 7 12 -4 9 2 21 11
28 23 17 54 66 44 71 -8 5 -373 12 -596 12 l-149 0 -61 -70 c-112 -129 -150
-141 -83 -25 23 41 51 87 60 101 18 27 18 27 -5 28 -13 1 -275 4 -583 7 -429
4 -565 8 -580 18 -11 7 -25 16 -32 20 -7 4 -20 -2 -30 -13z m692 -401 c15 -17
16 -24 7 -45 -11 -25 -50 -41 -74 -32 -7 3 -1 6 14 6 34 1 45 19 22 35 -11 9
-28 11 -51 6 -39 -9 -41 -5 -11 27 27 28 69 30 93 3z m-2115 -60 c-27 -81 -38
-75 -24 13 5 26 12 37 24 37 16 0 16 -3 0 -50z m460 0 c25 -5 88 -16 140 -25
52 -9 111 -20 130 -25 19 -4 62 -15 95 -24 33 -8 90 -20 127 -27 37 -6 75 -17
84 -24 16 -11 16 -14 -5 -44 -22 -31 -41 -40 -41 -21 0 6 -13 10 -28 10 -53 0
-217 30 -302 55 -47 13 -98 25 -113 25 -15 0 -40 6 -55 14 -15 7 -47 16 -72
20 -89 14 -161 62 -117 79 14 6 94 -1 157 -13z m-384 -12 c13 -13 24 -32 24
-43 0 -17 -5 -14 -30 15 -44 51 -39 70 6 28z m3775 12 c25 -14 24 -37 -1 -45
-11 -3 -20 -11 -20 -16 0 -5 -13 -9 -29 -9 -16 0 -34 -7 -42 -16 -9 -11 -22
-14 -42 -10 -17 3 -35 2 -41 -3 -6 -5 -29 -10 -51 -12 -22 -1 -48 -6 -57 -11
-9 -4 -30 -10 -45 -12 -55 -6 -93 -19 -93 -30 0 -7 -25 -11 -67 -12 -58 -1
-97 -5 -226 -26 -11 -2 -25 8 -35 24 -15 25 -15 29 -2 43 15 14 71 29 150 41
34 4 90 16 160 34 19 5 64 14 100 20 36 6 88 15 115 21 28 5 82 14 120 18 39
5 74 9 78 10 5 0 17 -4 28 -9z m-3705 -61 c1 -31 -2 -45 -7 -37 -11 16 -12 88
-1 88 4 0 7 -23 8 -51z m124 31 c0 -5 -7 -7 -15 -4 -8 4 -15 8 -15 10 0 2 7 4
15 4 8 0 15 -4 15 -10z m3767 -63 c-2 -23 -8 -40 -13 -37 -5 3 -8 11 -8 18 1
6 -3 12 -8 12 -6 0 -8 9 -5 20 3 11 0 20 -6 20 -6 0 -2 8 9 19 25 24 36 6 31
-52z m-117 43 c0 -5 -7 -10 -15 -10 -8 0 -15 5 -15 10 0 6 7 10 15 10 8 0 15
-4 15 -10z m-3719 -13 c-1 -12 -15 -9 -19 4 -3 6 1 10 8 8 6 -3 11 -8 11 -12z
m98 -41 c-9 -8 -10 -7 -5 7 3 10 7 26 7 35 1 9 4 6 6 -7 3 -13 -1 -28 -8 -35z
m-29 34 c0 -5 -6 -10 -14 -10 -8 0 -18 5 -21 10 -3 6 3 10 14 10 12 0 21 -4
21 -10z m3600 -26 c0 -14 -4 -22 -10 -19 -5 3 -10 17 -10 31 0 14 4 22 10 19
6 -3 10 -17 10 -31z m60 17 c0 -6 -5 -13 -10 -16 -15 -9 -43 3 -35 15 8 13 45
13 45 1z m40 -1 c0 -5 -4 -10 -10 -10 -5 0 -10 5 -10 10 0 6 5 10 10 10 6 0
10 -4 10 -10z m-4500 -60 c0 -11 -7 -20 -15 -20 -27 0 -18 30 13 39 1 1 2 -8
2 -19z m3584 -16 c9 -3 16 -9 16 -13 0 -3 -204 -6 -453 -7 -303 0 -469 -4
-503 -12 -38 -8 -60 -8 -85 0 -22 7 -198 13 -501 15 -274 3 -466 9 -462 14 6
10 1962 13 1988 3z m594 -41 c-10 -2 -28 -2 -40 0 -13 2 -5 4 17 4 22 1 32 -1
23 -4z m1112 -23 c6 -11 8 -20 6 -20 -3 0 -10 9 -16 20 -6 11 -8 20 -6 20 3 0
10 -9 16 -20z m-1200 -10 c0 -5 -7 -7 -15 -4 -8 4 -15 8 -15 10 0 2 7 4 15 4
8 0 15 -4 15 -10z m-1275 -477 c-4 -29 -11 -53 -16 -53 -12 0 -8 119 3 126 5
3 9 92 10 197 l3 192 3 -205 c2 -113 0 -229 -3 -257z m247 107 c4 19 7 102 8
185 0 82 3 151 5 154 7 7 6 -355 -2 -431 -7 -80 -24 -90 -25 -15 0 28 -1 144
-2 257 l-2 205 5 -195 c4 -116 9 -181 13 -160z m257 135 c2 83 7 164 12 180 4
17 6 -74 2 -205 -3 -129 -7 -238 -10 -243 -12 -20 -20 8 -16 57 3 33 0 56 -6
60 -13 8 -14 107 -3 262 l7 109 5 -185 6 -185 3 150z m-5862 166 c31 -46 31
-81 -1 -81 -14 0 -37 5 -52 10 -37 14 -45 0 -42 -73 3 -63 -11 -73 -24 -16 -9
37 -1 140 13 177 8 19 15 23 46 20 30 -2 42 -10 60 -37z m4150 -118 c-2 -32
-3 -8 -3 52 0 61 1 87 3 58 2 -29 2 -78 0 -110z m28 -272 c-3 -7 -8 -11 -12
-7 -9 9 -10 135 0 129 4 -2 8 67 9 154 2 147 3 143 5 -52 2 -115 1 -216 -2
-224z m247 89 c8 0 9 46 4 170 -5 125 -4 170 5 170 8 0 10 -62 8 -229 -4 -209
-8 -255 -25 -239 -7 8 -22 451 -15 463 3 6 7 -68 9 -162 2 -120 6 -173 14
-173z m269 -72 c-2 -49 -8 -78 -15 -78 -7 0 -10 18 -8 50 2 28 0 56 -6 63 -11
13 -17 375 -6 364 4 -3 10 -86 14 -184 l7 -178 3 190 4 190 5 -170 c3 -93 4
-205 2 -247z m239 42 c6 0 11 72 12 183 2 144 3 158 6 67 5 -150 -7 -380 -20
-380 -6 0 -7 21 -3 54 5 35 3 56 -4 60 -7 5 -10 67 -9 194 l3 187 2 -182 c2
-111 7 -183 13 -183z m397 88 c-1 -51 -3 -10 -3 92 0 102 2 143 3 93 2 -51 2
-135 0 -185z m778 117 c-5 -110 -4 -155 4 -155 7 0 12 51 14 153 3 144 3 142
4 -41 1 -192 -6 -267 -22 -229 -4 10 -5 36 -2 57 3 22 1 43 -4 46 -14 8 -12
324 2 324 8 0 9 -44 4 -155z m1737 142 c27 -7 65 -28 90 -51 26 -22 89 -57
157 -87 113 -48 138 -66 122 -82 -11 -11 -110 9 -131 27 -25 21 -149 69 -209
80 -53 11 -57 14 -81 59 -22 41 -23 49 -10 57 8 5 15 10 15 9 0 0 21 -5 47
-12z m-72 -74 c0 -13 -4 -23 -10 -23 -5 0 -10 17 -10 38 0 27 3 33 10 22 5 -8
10 -25 10 -37z m-2616 -83 c4 -113 45 -178 60 -92 3 20 9 48 13 61 4 17 3 22
-5 17 -28 -17 -9 14 23 38 l34 26 -24 -65 c-26 -69 -32 -115 -14 -115 5 0 7
-4 4 -10 -3 -5 -50 -11 -103 -12 l-97 -2 105 -6 c58 -3 99 -7 92 -8 -7 -1 -10
-6 -7 -12 3 -5 2 -10 -4 -10 -5 0 -11 6 -13 12 -8 23 -60 -8 -58 -35 1 -12 1
-25 0 -29 -1 -5 -3 -14 -4 -20 0 -7 -11 -14 -23 -16 -24 -4 -28 6 -24 60 2 31
-33 58 -52 39 -14 -14 -30 -14 -22 -1 3 6 2 10 -2 10 -5 0 -9 9 -9 20 0 11 4
20 8 20 14 0 8 44 -16 112 -23 68 -20 72 22 35 23 -21 31 -44 10 -31 -8 5 -9
0 -5 -17 4 -13 10 -41 13 -61 4 -21 12 -38 19 -38 24 0 66 175 44 182 -5 2 -4
18 3 36 12 31 13 31 21 10 5 -13 10 -57 11 -98z m-3974 74 c11 -12 10 -18 -5
-32 -10 -9 -15 -12 -11 -6 7 14 -18 26 -39 18 -9 -4 -15 0 -15 9 0 28 50 36
70 11z m-1117 -6 c12 -7 80 -33 151 -58 71 -25 131 -50 133 -55 2 -6 -18 -28
-43 -49 l-47 -39 -111 11 c-61 7 -124 17 -141 22 l-30 10 34 -5 c19 -3 77 -8
130 -11 75 -5 104 -3 133 10 53 23 54 34 6 46 -123 32 -248 90 -248 116 0 17
5 17 33 2z m8927 -17 c20 -49 5 -59 -19 -13 -16 32 -18 42 -7 42 7 0 19 -13
26 -29z m-1186 -19 c-3 -16 -1 -45 4 -65 6 -21 7 -37 2 -37 -14 0 -29 26 -26
46 2 10 1 13 -1 6 -5 -15 -23 -6 -23 12 0 13 37 66 45 66 3 0 2 -13 -1 -28z
m2944 21 c-15 -2 -42 -2 -60 0 -18 2 -6 4 27 4 33 0 48 -2 33 -4z m-7257 -18
c63 -33 85 -110 51 -174 -38 -70 -125 -89 -192 -41 -37 27 -52 53 -52 95 0 99
106 165 193 120z m3412 -9 c18 -7 45 -28 60 -45 50 -59 27 -150 -46 -184 -95
-45 -190 13 -190 116 0 46 26 85 74 109 41 22 59 22 102 4z m737 -26 c0 -5 -5
-10 -11 -10 -5 0 -7 5 -4 10 3 6 8 10 11 10 2 0 4 -4 4 -10z m-4041 -33 c0
-21 -1 -21 -9 -2 -12 28 -12 37 0 30 6 -3 10 -16 9 -28z m7171 23 c0 -7 -14
-8 -37 -4 -52 9 -54 14 -5 14 23 0 42 -5 42 -10z m150 0 c11 -7 2 -10 -32 -10
-26 0 -50 5 -53 10 -8 13 65 13 85 0z m150 -4 c8 -2 -14 -4 -50 -5 -36 0 -59
3 -53 7 12 7 65 6 103 -2z m144 -5 c6 -9 -93 -6 -102 4 -3 3 18 5 46 5 28 0
53 -4 56 -9z m181 -1 c15 -7 10 -9 -22 -9 -24 -1 -43 4 -43 9 0 12 37 12 65 0z
m110 0 c18 -8 17 -9 -7 -9 -16 -1 -28 4 -28 9 0 12 8 12 35 0z m-3482 -20 c3
-11 1 -23 -4 -26 -5 -3 -9 -1 -9 5 0 5 -3 16 -6 25 -3 9 -2 16 4 16 5 0 12 -9
15 -20z m2010 3 c-7 -2 -13 -11 -13 -19 0 -9 -4 -12 -10 -9 -19 12 -10 35 13
34 12 0 16 -3 10 -6z m-10174 -52 c-1 -27 2 -54 6 -61 6 -9 3 -9 -14 -1 -26
14 -35 49 -22 84 16 42 31 32 30 -22z m10469 30 c3 -8 -1 -12 -9 -9 -7 2 -15
10 -17 17 -3 8 1 12 9 9 7 -2 15 -10 17 -17z m-7700 -16 c-3 -3 -9 2 -12 12
-6 14 -5 15 5 6 7 -7 10 -15 7 -18z m-836 0 c11 -7 -100 -9 -345 -8 -199 0
-499 2 -667 2 -208 1 -300 5 -290 11 20 14 1279 9 1302 -5z m6116 -13 c45 -4
59 -22 17 -22 -28 0 -95 25 -95 36 0 3 8 3 18 -2 9 -4 36 -9 60 -12z m-5528
-7 c0 -8 -2 -15 -4 -15 -2 0 -6 7 -10 15 -3 8 -1 15 4 15 6 0 10 -7 10 -15z
m7348 4 c199 -15 220 -31 27 -22 -82 5 -404 8 -715 8 -466 0 -547 2 -460 11
140 15 963 17 1148 3z m-1479 -26 c9 -18 9 -23 -1 -23 -7 0 -14 12 -14 26 -2
28 -1 28 15 -3z m-1562 -5 c-3 -8 -6 -5 -6 6 -1 11 2 17 5 13 3 -3 4 -12 1
-19z m4071 -5 c-10 -2 -26 -2 -35 0 -10 3 -2 5 17 5 19 0 27 -2 18 -5z m-728
-53 c0 -27 -4 -50 -10 -50 -5 0 -10 7 -10 15 0 7 -7 18 -16 23 -24 13 -11 62
16 62 17 0 20 -7 20 -50z m868 43 c-10 -2 -26 -2 -35 0 -10 3 -2 5 17 5 19 0
27 -2 18 -5z m167 -3 c8 -12 -42 -12 -70 0 -16 7 -11 9 22 9 23 1 45 -3 48 -9z
m138 -7 c-13 -2 -33 -2 -45 0 -13 2 -3 4 22 4 25 0 35 -2 23 -4z m187 -3 c19
-12 -66 -12 -95 0 -15 6 -7 9 30 9 28 0 57 -4 65 -9z m-10242 -41 c-12 -8 8
-105 24 -115 14 -9 18 -2 19 48 2 33 7 48 22 58 18 11 19 10 12 -7 -4 -10 -12
-36 -18 -58 -5 -22 -13 -44 -17 -48 -11 -12 -41 4 -50 27 -9 21 -9 21 -9 -1
-1 -14 -7 -23 -17 -23 -11 0 -14 5 -9 18 17 41 26 97 16 100 -8 3 -8 10 0 24
10 19 11 19 24 1 9 -12 10 -20 3 -24z m8189 -51 c-2 -18 -4 -4 -4 32 0 36 2
50 4 33 2 -18 2 -48 0 -65z m120 0 c-2 -18 -4 -4 -4 32 0 36 2 50 4 33 2 -18
2 -48 0 -65z m20 45 c-3 -10 -5 -2 -5 17 0 19 2 27 5 18 2 -10 2 -26 0 -35z
m270 -5 c-2 -13 -4 -5 -4 17 -1 22 1 32 4 23 2 -10 2 -28 0 -40z m-695 -113
c3 -86 2 -127 -3 -95 -7 56 -12 257 -5 249 2 -2 5 -71 8 -154z m-140 -5 c3
-85 2 -122 -2 -90 -8 56 -13 247 -6 239 2 -2 5 -69 8 -149z m815 17 c-2 -23
-3 -1 -3 48 0 50 1 68 3 42 2 -26 2 -67 0 -90z m-800 71 c-2 -13 -4 -5 -4 17
-1 22 1 32 4 23 2 -10 2 -28 0 -40z m276 -4 c-3 -18 0 -47 6 -65 13 -38 6 -53
-8 -18 l-10 24 -7 -22 c-3 -13 -11 -23 -16 -23 -6 0 -7 8 -3 18 18 42 26 84
20 102 -3 11 -3 25 1 31 11 19 23 -11 17 -47z m-8126 -16 c5 -56 22 -78 60
-78 29 0 32 -3 25 -17 -4 -10 -7 -28 -6 -40 1 -16 -4 -23 -17 -23 -19 0 -21 5
-23 45 -1 10 -12 25 -26 32 -15 8 -24 20 -22 31 1 10 -4 37 -13 61 -19 55 -19
59 2 39 9 -9 18 -32 20 -50z m1328 42 c3 -5 1 -10 -4 -10 -6 0 -11 5 -11 10 0
6 2 10 4 10 3 0 8 -4 11 -10z m500 -105 c9 -83 -2 -170 -20 -155 -7 6 -19 8
-27 5 -12 -5 -15 2 -12 34 1 22 9 50 18 62 11 17 12 27 5 42 -8 13 -8 22 0 30
6 6 11 31 12 57 1 40 2 42 9 17 5 -15 12 -56 15 -92z m51 60 c-3 -8 4 -21 15
-28 18 -13 18 -15 4 -21 -27 -10 -35 2 -35 52 1 38 3 43 11 29 6 -10 8 -25 5
-32z m5824 -109 c12 -12 13 -73 1 -80 -10 -6 -22 106 -19 184 2 46 3 42 5 -20
2 -41 8 -79 13 -84z m-1435 114 c-10 -11 -25 -20 -34 -19 -11 0 -10 3 5 9 12
4 24 16 28 26 3 9 9 14 13 10 3 -3 -2 -15 -12 -26z m1791 -44 c4 -55 -12 -53
-18 1 -3 21 -8 47 -13 58 -7 19 -7 19 10 4 10 -10 19 -36 21 -63z m471 -33
c-2 -21 -4 -4 -4 37 0 41 2 58 4 38 2 -21 2 -55 0 -75z m-966 -27 c11 -12 12
-73 0 -80 -9 -6 -22 106 -19 169 1 27 3 20 5 -20 2 -33 8 -64 14 -69z m631 87
c-6 -15 -13 -37 -16 -48 -2 -11 -3 -2 -2 20 2 41 14 71 23 61 3 -3 1 -18 -5
-33z m585 -40 c-2 -16 -4 -5 -4 22 0 28 2 40 4 28 2 -13 2 -35 0 -50z m1023
57 c0 -5 -9 -10 -19 -10 -11 0 -23 5 -26 10 -4 6 5 10 19 10 14 0 26 -4 26
-10z m190 -10 c12 -8 10 -10 -10 -10 -14 0 -32 5 -40 10 -12 8 -10 10 10 10
14 0 32 -5 40 -10z m-8074 -18 c-10 -2 -22 0 -28 6 -6 6 0 7 19 4 21 -5 23 -7
9 -10z m6591 -59 c-2 -16 -4 -3 -4 27 0 30 2 43 4 28 2 -16 2 -40 0 -55z
m1633 67 c13 -9 13 -10 0 -10 -8 0 -22 5 -30 10 -13 9 -13 10 0 10 8 0 22 -5
30 -10z m-2733 -37 c-3 -10 -5 -4 -5 12 0 17 2 24 5 18 2 -7 2 -21 0 -30z
m2902 28 c27 -18 -33 -24 -70 -7 l-34 14 45 1 c25 0 52 -3 59 -8z m-2462 -23
c-3 -8 -6 -5 -6 6 -1 11 2 17 5 13 3 -3 4 -12 1 -19z m2593 12 c8 -5 11 -10 5
-10 -5 0 -17 5 -25 10 -8 5 -10 10 -5 10 6 0 17 -5 25 -10z m-11656 -16 c3 -8
2 -12 -4 -9 -6 3 -10 10 -10 16 0 14 7 11 14 -7z m2687 -7 c-10 -9 -11 -8 -5
6 3 10 9 15 12 12 3 -3 0 -11 -7 -18z m9016 17 c-3 -3 -12 -4 -19 -1 -8 3 -5
6 6 6 11 1 17 -2 13 -5z m-8592 -34 c-3 -5 0 -10 7 -10 9 0 9 -3 -2 -10 -12
-7 -8 -11 18 -16 19 -4 30 -10 25 -13 -10 -7 -43 -66 -43 -77 0 -4 12 3 27 17
21 18 23 19 10 3 -18 -21 -47 -136 -47 -186 0 -44 18 -42 28 4 l10 43 1 -53
c1 -42 5 -54 20 -60 19 -7 18 -8 -5 -19 -21 -10 -24 -9 -24 8 0 10 -7 19 -15
19 -20 0 -24 23 -28 172 -3 82 -1 130 6 137 8 8 7 11 -3 11 -7 0 -10 3 -7 7 4
3 2 12 -4 20 -9 10 -7 13 10 13 12 0 19 -4 16 -10z m227 1 c75 -29 580 -107
626 -97 27 5 27 5 3 -6 -19 -10 -85 -5 -339 24 -173 20 -319 41 -325 47 -9 9
-4 41 7 41 3 0 15 -4 28 -9z m-1992 -11 c0 -5 -2 -10 -4 -10 -3 0 -8 5 -11 10
-3 6 -1 10 4 10 6 0 11 -4 11 -10z m1721 -52 c1 -32 0 -61 -4 -65 -4 -3 -7 24
-7 62 0 82 7 83 11 3z m4187 29 c2 -15 -1 -27 -7 -27 -5 0 -135 -13 -288 -30
-289 -31 -378 -36 -387 -21 -8 13 14 17 260 51 121 17 257 37 304 44 108 18
114 17 118 -17z m409 11 c-3 -8 -6 -5 -6 6 -1 11 2 17 5 13 3 -3 4 -12 1 -19z
m983 -7 c0 -17 -4 -33 -10 -36 -6 -4 -10 8 -10 29 0 20 5 36 10 36 6 0 10 -13
10 -29z m960 -36 c0 -37 -4 -65 -10 -65 -5 0 -10 12 -10 28 0 33 11 102 16
102 2 0 4 -29 4 -65z m410 20 c0 -13 -4 -27 -10 -30 -6 -4 -10 8 -10 30 0 22
4 34 10 30 6 -3 10 -17 10 -30z m-666 3 c-3 -5 -8 -21 -10 -35 -6 -31 -11 -39
-20 -30 -11 11 -13 61 -3 68 15 9 39 7 33 -3z m523 -55 c-2 -16 -4 -5 -4 22 0
28 2 40 4 28 2 -13 2 -35 0 -50z m-410 -10 c-2 -16 -4 -5 -4 22 0 28 2 40 4
28 2 -13 2 -35 0 -50z m283 27 c0 -22 -4 -40 -10 -40 -5 0 -10 18 -10 40 0 22
5 40 10 40 6 0 10 -18 10 -40z m-1692 3 c-10 -2 -28 -2 -40 0 -13 2 -5 4 17 4
22 1 32 -1 23 -4z m2502 -13 c0 -5 -3 -10 -7 -10 -5 0 -84 -7 -177 -15 -93 -8
-171 -13 -174 -10 -10 9 51 25 101 26 29 1 77 4 107 9 83 11 150 11 150 0z
m-2913 -57 c-3 -10 -5 -2 -5 17 0 19 2 27 5 18 2 -10 2 -26 0 -35z m-4447 13
c-6 -8 -20 -36 -30 -63 -11 -26 -19 -42 -20 -35 -1 27 43 112 57 112 3 0 0 -6
-7 -14z m7485 -17 c9 -17 15 -34 13 -39 -2 -5 -11 9 -20 30 -20 47 -15 53 7 9z
m-3205 -184 c-7 -87 -12 -177 -12 -200 1 -22 -3 -58 -9 -80 -11 -41 -68 -135
-82 -135 -4 0 1 12 12 28 35 49 52 138 78 407 21 224 30 210 13 -20z m290 185
c0 -5 -4 -10 -10 -10 -5 0 -10 5 -10 10 0 6 5 10 10 10 6 0 10 -4 10 -10z
m-4770 -65 c19 -90 19 -138 2 -167 -29 -50 -36 -39 -33 52 2 41 -1 51 -9 40
-7 -11 -10 1 -8 46 2 46 5 61 15 57 7 -3 13 2 13 11 0 32 9 15 20 -39z m4761
-26 l-9 -54 -1 51 c0 28 2 54 6 57 12 13 13 0 4 -54z m-84 14 c-3 -10 -5 -4
-5 12 0 17 2 24 5 18 2 -7 2 -21 0 -30z m3030 -35 c-2 -13 -4 -5 -4 17 -1 22
1 32 4 23 2 -10 2 -28 0 -40z m-3123 2 c22 -17 36 -30 33 -30 -9 0 -87 51 -87
56 0 10 18 1 54 -26z m-5 -32 c34 -18 41 -27 41 -51 0 -16 -3 -27 -7 -25 -74
35 -83 43 -83 70 0 15 2 28 4 28 2 0 23 -10 45 -22z m201 -28 c0 -5 -2 -10 -4
-10 -3 0 -8 5 -11 10 -3 6 -1 10 4 10 6 0 11 -4 11 -10z m-4647 -170 c3 -11 1
-23 -4 -26 -5 -3 -9 6 -9 20 0 31 6 34 13 6z m6962 -40 c22 -11 54 -20 71 -20
31 0 33 -3 43 -51 6 -28 16 -59 21 -70 8 -13 7 -19 0 -19 -15 0 -369 89 -407
102 -51 18 -28 28 66 28 80 0 89 2 111 25 28 30 44 31 95 5z m-6949 -55 c11
-63 1 -96 -15 -52 -13 33 -15 107 -3 107 4 0 12 -25 18 -55z m-169 23 c-3 -8
-6 -5 -6 6 -1 11 2 17 5 13 3 -3 4 -12 1 -19z m3480 -228 c21 -16 41 -20 103
-20 73 0 77 -1 89 -26 l12 -27 -38 6 c-21 4 -115 11 -208 18 -167 11 -224 19
-131 19 31 0 63 9 94 25 26 14 48 25 50 25 2 0 15 -9 29 -20z"/>
<path d="M6213 6493 c9 -2 25 -2 35 0 9 3 1 5 -18 5 -19 0 -27 -2 -17 -5z"/>
<path d="M6231 6153 c0 -12 -4 -28 -7 -37 -4 -12 0 -16 16 -16 17 0 20 3 12
13 -5 6 -12 23 -15 37 -4 22 -4 22 -6 3z"/>
<path d="M4472 6250 c-121 -74 -29 -261 102 -206 40 17 76 67 76 107 0 14 -10
41 -23 60 -40 60 -97 74 -155 39z m140 -85 c0 -5 -5 -11 -11 -13 -6 -2 -11 4
-11 13 0 9 5 15 11 13 6 -2 11 -8 11 -13z m-102 -16 c0 -11 -4 -18 -10 -14 -5
3 -7 12 -3 20 7 21 13 19 13 -6z m27 -16 c-3 -10 -5 -4 -5 12 0 17 2 24 5 18
2 -7 2 -21 0 -30z m-67 8 c0 -6 -4 -12 -10 -16 -13 -8 -1 -33 18 -38 15 -4 15
-5 0 -6 -10 0 -24 12 -33 29 -19 37 -19 40 5 40 11 0 20 -4 20 -9z"/>
<path d="M7930 6253 c-61 -20 -90 -57 -90 -113 0 -95 97 -149 178 -100 80 49
66 168 -24 206 -35 15 -40 15 -64 7z m120 -98 c0 -8 -9 -15 -20 -15 -25 0 -26
17 -2 23 9 3 18 5 20 6 1 0 2 -6 2 -14z m-93 -32 c-3 -10 -5 -4 -5 12 0 17 2
24 5 18 2 -7 2 -21 0 -30z m-27 8 c0 -5 3 -18 6 -28 6 -16 5 -16 -9 2 -19 23
-21 35 -7 35 6 0 10 -4 10 -9z"/>
<path d="M4063 5845 c-9 -24 1 -27 15 -5 8 13 8 20 2 20 -6 0 -13 -7 -17 -15z"/>
<path d="M4208 7123 c7 -3 16 -2 19 1 4 3 -2 6 -13 5 -11 0 -14 -3 -6 -6z"/>
<path d="M4430 7110 c-20 -12 -10 -19 14 -10 11 3 15 9 10 13 -6 3 -16 2 -24
-3z"/>
<path d="M8160 7093 c8 -2 29 -9 45 -14 28 -8 29 -8 11 6 -11 8 -31 15 -45 14
-15 0 -19 -3 -11 -6z"/>
<path d="M4025 7060 c3 -5 17 -10 31 -10 13 0 24 5 24 10 0 6 -14 10 -31 10
-17 0 -28 -4 -24 -10z"/>
<path d="M4105 7060 c3 -5 19 -10 36 -10 16 0 29 5 29 10 0 6 -16 10 -36 10
-21 0 -33 -4 -29 -10z"/>
<path d="M4195 7060 c7 -12 65 -10 65 2 0 4 -16 8 -36 8 -21 0 -33 -4 -29 -10z"/>
<path d="M8265 7040 c10 -11 20 -20 23 -20 3 0 -3 9 -13 20 -10 11 -20 20 -23
20 -3 0 3 -9 13 -20z"/>
<path d="M4120 7023 c0 -10 5 -25 10 -33 7 -11 10 -7 10 18 0 17 -4 32 -10 32
-5 0 -10 -8 -10 -17z"/>
<path d="M570 6970 c0 -5 5 -10 11 -10 5 0 7 5 4 10 -3 6 -8 10 -11 10 -2 0
-4 -4 -4 -10z"/>
<path d="M4104 6961 c10 -15 55 -19 67 -5 9 11 4 14 -30 14 -23 0 -40 -4 -37
-9z"/>
<path d="M8443 6903 l-33 -4 24 -47 c13 -26 31 -69 40 -97 l16 -50 84 2 c71 2
86 0 101 -16 13 -15 14 -24 6 -39 -7 -13 -7 -22 -1 -24 12 -4 16 -77 5 -103
-8 -20 -8 -20 14 -1 37 34 64 85 52 100 -6 7 -8 16 -4 19 3 4 1 7 -6 7 -7 0
-9 5 -6 10 9 15 -6 101 -16 94 -13 -7 -12 -4 16 71 14 36 21 64 16 61 -5 -4
-15 -23 -22 -44 -21 -64 -38 -82 -76 -82 l-34 0 3 46 3 46 -55 18 c-39 12 -61
15 -74 8 -12 -7 -22 -6 -29 1 -10 10 8 15 51 14 6 -1 12 3 12 8 0 9 -26 9 -87
2z"/>
<path d="M11193 6854 c3 -16 8 -38 12 -50 4 -13 1 -27 -10 -37 -15 -15 -14
-19 2 -43 l17 -27 104 6 c69 4 112 11 128 22 26 17 32 40 12 48 -8 3 -5 6 6 6
15 1 17 6 11 28 -12 51 -18 53 -143 47 -64 -3 -120 -7 -124 -10 -4 -3 -5 1 -2
9 3 8 0 18 -7 22 -8 6 -10 0 -6 -21z"/>
<path d="M785 6850 c3 -5 10 -10 16 -10 5 0 9 5 9 10 0 6 -7 10 -16 10 -8 0
-12 -4 -9 -10z"/>
<path d="M620 6796 c0 -2 7 -7 16 -10 8 -3 12 -2 9 4 -6 10 -25 14 -25 6z"/>
<path d="M12480 6744 c0 -9 -8 -18 -18 -21 -23 -6 -27 -45 -4 -41 9 2 22 -8
29 -22 7 -14 13 -20 13 -13 0 7 7 10 15 7 9 -4 15 0 15 10 0 14 -12 20 -32 17
-9 -1 -11 12 -8 52 1 15 -1 27 -4 27 -3 0 -6 -7 -6 -16z"/>
<path d="M157 6733 c-3 -5 -39 -8 -81 -7 -44 1 -73 -3 -70 -8 3 -5 43 -9 87
-8 45 1 104 -3 132 -8 44 -9 48 -9 31 4 -11 8 -28 14 -39 14 -10 0 -27 5 -37
10 -10 6 -21 7 -23 3z"/>
<path d="M10535 6721 c-4 -7 20 -11 71 -11 43 0 75 3 71 6 -11 11 -135 15
-142 5z"/>
<path d="M370 6716 c0 -2 7 -7 16 -10 8 -3 12 -2 9 4 -6 10 -25 14 -25 6z"/>
<path d="M12395 6700 c3 -5 11 -10 16 -10 6 0 7 5 4 10 -3 6 -11 10 -16 10 -6
0 -7 -4 -4 -10z"/>
<path d="M692 6686 c15 -16 50 -18 45 -3 -2 6 -16 13 -30 14 -21 1 -24 -1 -15
-11z"/>
<path d="M758 6688 c5 -5 16 -8 23 -6 8 3 3 7 -10 11 -17 4 -21 3 -13 -5z"/>
<path d="M8785 6686 c-16 -12 -17 -16 -6 -30 7 -9 23 -16 34 -16 20 0 20 1 2
14 -11 8 -16 19 -12 30 8 20 6 20 -18 2z"/>
<path d="M11100 6690 c0 -5 7 -10 15 -10 8 0 15 5 15 10 0 6 -7 10 -15 10 -8
0 -15 -4 -15 -10z"/>
<path d="M11981 6686 c-7 -9 -11 -21 -8 -28 2 -7 -1 -20 -8 -28 -11 -12 -11
-22 0 -52 7 -21 9 -38 4 -38 -5 0 -9 -8 -9 -17 0 -15 -9 -18 -49 -19 -34 -1
-52 3 -55 12 -3 8 -1 14 4 14 6 0 10 5 10 10 0 6 -7 10 -15 10 -9 0 -15 -9
-15 -25 0 -14 -5 -25 -11 -25 -7 0 -9 10 -5 25 5 19 3 25 -11 25 -13 0 -14 3
-5 12 7 7 12 20 12 30 0 19 15 24 25 8 11 -18 25 -11 25 13 0 22 -3 24 -57 22
-72 -3 -69 -2 -71 -17 -1 -7 -4 -27 -8 -44 -5 -28 -3 -33 22 -41 24 -8 28 -15
30 -51 2 -46 -7 -54 -23 -19 -13 28 -73 53 -73 30 0 -10 -6 -13 -16 -9 -25 10
-37 -4 -17 -19 21 -15 14 -28 -11 -19 -17 7 -21 40 -7 63 13 20 3 40 -18 34
-10 -3 -30 6 -46 20 -24 20 -26 25 -11 30 12 5 20 -1 29 -20 l12 -26 6 24 c3
13 10 23 16 22 5 -1 7 11 5 28 -5 34 -5 34 -27 12 -14 -13 -21 -14 -36 -5 -25
16 -28 15 -22 -8 7 -25 -11 -26 -38 -2 -11 11 -17 26 -14 35 5 11 -2 17 -26
22 -22 5 -34 4 -37 -4 -3 -9 -8 -9 -17 -1 -27 22 -22 -6 7 -40 16 -19 26 -27
22 -17 -5 13 -2 16 10 11 9 -3 16 -1 16 6 0 6 5 8 10 5 8 -5 7 -11 -1 -21 -17
-20 -4 -43 21 -37 16 4 19 2 14 -13 -4 -15 -4 -16 4 -5 11 15 42 8 42 -9 0 -5
-7 -10 -17 -10 -15 0 -15 -2 1 -19 10 -11 24 -17 32 -14 9 3 14 -2 14 -17 0
-12 15 -40 34 -63 18 -23 39 -53 46 -66 l12 -23 276 7 c153 4 284 9 292 11 8
1 135 3 283 3 l267 1 0 100 c0 89 -2 100 -17 100 -10 0 -25 -4 -33 -10 -18
-11 -29 4 -30 40 l-1 25 -11 -25 c-10 -24 -10 -24 -18 -5 -4 11 -6 23 -4 26 2
4 -5 9 -16 12 -23 6 -24 4 -7 -23 10 -17 9 -22 -1 -29 -7 -4 -14 -18 -15 -29
-1 -25 -35 -30 -55 -10 -8 8 -12 8 -12 1 0 -6 -7 -13 -15 -17 -12 -4 -14 3
-10 39 4 47 -8 58 -30 28 -11 -15 -13 -13 -20 18 -7 30 -9 32 -17 14 -5 -11
-15 -31 -23 -44 -14 -26 -9 -53 6 -30 7 11 9 10 9 -3 0 -21 -4 -22 -32 -7 -17
9 -18 13 -7 20 10 6 7 9 -13 9 -14 0 -33 2 -40 5 -11 4 -13 -3 -12 -32 2 -21
0 -28 -2 -17 -5 22 -39 38 -56 28 -5 -3 -13 -17 -18 -30 -8 -20 -16 -24 -55
-24 -62 0 -57 29 9 46 34 8 17 24 -27 24 -19 0 -30 -7 -37 -22 -8 -21 -9 -20
-11 12 -1 19 -2 50 -1 68 1 22 -3 32 -11 29 -7 -2 -11 -18 -9 -40 4 -36 3 -37
-28 -30 -27 5 -31 3 -30 -13 4 -34 0 -43 -15 -38 -8 4 -15 1 -15 -5 0 -6 -7
-11 -15 -11 -8 0 -15 -4 -15 -10 0 -5 -4 -10 -10 -10 -5 0 -10 14 -10 32 0 30
-1 31 -16 12 -8 -10 -13 -14 -10 -7 4 6 2 14 -4 18 -12 8 -13 45 -1 45 12 0
23 92 13 102 -5 5 -14 2 -21 -6z m477 -179 c6 -5 12 -16 12 -25 0 -12 -3 -13
-12 -4 -7 7 -20 12 -30 12 -10 0 -18 7 -18 15 0 15 24 16 48 2z m287 3 c3 -5
1 -10 -4 -10 -6 0 -11 5 -11 10 0 6 2 10 4 10 3 0 8 -4 11 -10z m-607 -20 c3
-8 0 -10 -7 -5 -7 4 -20 0 -30 -9 -16 -15 -20 -15 -30 -2 -7 8 -10 20 -6 25 8
15 68 7 73 -9z m212 4 c0 -2 -7 -4 -15 -4 -8 0 -15 4 -15 10 0 5 7 7 15 4 8
-4 15 -8 15 -10z m336 3 c3 -3 -24 -7 -60 -9 -36 -1 -66 0 -66 4 0 13 113 18
126 5z m-746 -38 c0 -17 -6 -20 -37 -17 -47 4 -50 22 -5 26 20 2 30 7 26 14
-4 7 -2 8 4 4 7 -4 12 -16 12 -27z m118 -1 c19 -19 14 -25 -18 -20 -17 2 -30
10 -30 18 0 17 32 18 48 2z m82 -4 c0 -9 -5 -14 -12 -12 -18 6 -21 28 -4 28 9
0 16 -7 16 -16z m47 1 c8 -9 13 -19 10 -22 -10 -10 -37 6 -37 22 0 19 7 19 27
0z m123 0 c18 -22 7 -28 -35 -21 -21 4 -35 13 -35 21 0 20 54 20 70 0z m128
-2 c2 -8 -5 -13 -17 -13 -12 0 -21 6 -21 16 0 18 31 15 38 -3z m-58 -3 c0 -5
-2 -10 -4 -10 -3 0 -8 5 -11 10 -3 6 -1 10 4 10 6 0 11 -4 11 -10z"/>
<path d="M1255 6680 c-4 -6 7 -10 27 -10 25 0 29 3 18 10 -19 13 -37 13 -45 0z"/>
<path d="M11180 6681 c0 -14 12 -20 61 -26 l44 -6 -31 14 c-49 23 -74 29 -74
18z"/>
<path d="M150 6676 c0 -2 9 -6 20 -9 11 -3 18 -1 14 4 -5 9 -34 13 -34 5z"/>
<path d="M8382 6642 c-1 -24 -7 -53 -13 -65 -9 -20 -9 -20 4 -5 13 16 16 15
53 -13 l39 -31 -37 34 c-30 27 -37 43 -41 78 l-4 45 -1 -43z"/>
<path d="M11930 6672 c0 -19 12 -42 22 -42 14 0 5 43 -9 48 -7 2 -13 -1 -13
-6z"/>
<path d="M600 6667 c0 -9 40 -35 44 -28 3 4 -6 13 -19 19 -14 7 -25 10 -25 9z"/>
<path d="M3743 6663 c9 -2 23 -2 30 0 6 3 -1 5 -18 5 -16 0 -22 -2 -12 -5z"/>
<path d="M3798 6663 c6 -2 18 -2 25 0 6 3 1 5 -13 5 -14 0 -19 -2 -12 -5z"/>
<path d="M12370 6660 c-11 -8 -7 -9 15 -4 37 8 45 14 19 14 -10 0 -26 -5 -34
-10z"/>
<path d="M118 6653 c7 -3 16 -2 19 1 4 3 -2 6 -13 5 -11 0 -14 -3 -6 -6z"/>
<path d="M430 6651 c0 -5 7 -12 16 -15 14 -5 15 -4 4 9 -14 17 -20 19 -20 6z"/>
<path d="M680 6645 c0 -8 2 -15 4 -15 2 0 6 7 10 15 3 8 1 15 -4 15 -6 0 -10
-7 -10 -15z"/>
<path d="M720 6651 c0 -5 7 -12 16 -15 24 -9 27 -7 10 9 -17 17 -26 19 -26 6z"/>
<path d="M11890 6652 c0 -5 7 -13 16 -16 10 -4 14 -1 12 6 -5 15 -28 23 -28
10z"/>
<path d="M12710 6639 c0 -11 5 -17 10 -14 6 3 10 13 10 21 0 8 -4 14 -10 14
-5 0 -10 -9 -10 -21z"/>
<path d="M905 6623 c-3 -13 -12 -23 -20 -23 -8 0 -15 -9 -15 -20 0 -14 -7 -20
-22 -20 -22 -1 -22 -1 4 -15 33 -19 65 -10 46 12 -10 12 -9 17 2 27 8 6 15 18
15 26 0 8 11 20 25 27 l25 13 -27 -2 c-19 -2 -29 -9 -33 -25z"/>
<path d="M808 6633 c7 -3 16 -2 19 1 4 3 -2 6 -13 5 -11 0 -14 -3 -6 -6z"/>
<path d="M11653 6625 c-9 -25 2 -27 22 -5 17 18 17 20 1 20 -9 0 -19 -7 -23
-15z"/>
<path d="M0 6621 c0 -5 5 -13 10 -16 5 -3 10 -2 10 4 0 5 -4 13 -10 16 -5 3
-10 2 -10 -4z"/>
<path d="M477 6619 c7 -7 15 -10 18 -7 3 3 -2 9 -12 12 -14 6 -15 5 -6 -5z"/>
<path d="M694 6615 c-4 -10 -16 -13 -45 -9 -26 4 -39 2 -39 -6 0 -6 4 -9 9 -5
13 7 22 -9 27 -51 3 -22 1 -33 -6 -29 -6 3 -10 -3 -10 -15 0 -12 4 -19 9 -16
5 4 12 -8 16 -26 12 -65 21 -74 78 -74 48 -1 53 1 67 29 16 32 48 53 37 24 -4
-10 1 -17 14 -20 14 -4 18 -2 11 6 -16 22 -13 65 5 69 15 3 15 4 0 17 -15 12
-17 11 -18 -5 0 -18 -1 -18 -10 1 -8 17 -9 17 -5 -5 5 -22 1 -26 -22 -29 -43
-5 -56 -4 -76 4 -15 7 -17 5 -11 -6 6 -11 5 -12 -6 -1 -7 6 -22 12 -32 12 -17
0 -18 2 -6 16 10 13 10 17 -1 24 -11 7 -11 12 -2 23 7 7 8 18 4 22 -4 5 1 5
11 2 10 -4 21 -7 23 -7 3 0 2 -5 -2 -12 -4 -7 -3 -8 4 -4 7 4 12 1 12 -8 0 -9
-8 -16 -17 -16 -13 0 -14 -3 -6 -11 11 -11 63 -22 63 -13 0 10 -35 59 -47 67
-18 11 -16 30 2 23 9 -3 15 0 15 10 0 11 -5 14 -16 10 -12 -4 -15 -2 -10 9 3
8 1 15 -5 15 -5 0 -12 -7 -15 -15z m56 -180 c-5 -7 -21 -10 -35 -7 -42 8 -38
21 5 20 31 0 38 -3 30 -13z"/>
<path d="M145 6611 c6 -5 26 -12 45 -16 23 -5 32 -4 25 3 -5 5 -26 12 -45 16
-21 4 -31 3 -25 -3z"/>
<path d="M345 6610 c3 -5 16 -10 28 -9 21 0 21 1 2 9 -28 12 -37 12 -30 0z"/>
<path d="M11705 6600 c3 -5 11 -10 16 -10 6 0 7 5 4 10 -3 6 -11 10 -16 10 -6
0 -7 -4 -4 -10z"/>
<path d="M12630 6601 c0 -5 5 -13 10 -16 6 -3 10 -2 10 4 0 5 -4 13 -10 16 -5
3 -10 2 -10 -4z"/>
<path d="M11890 6590 c0 -6 7 -13 15 -16 10 -4 13 -13 10 -25 -4 -13 -1 -19 8
-19 16 0 32 44 22 60 -8 13 -55 13 -55 0z"/>
<path d="M12580 6571 c0 -13 9 -20 30 -23 34 -5 38 2 12 25 -25 22 -42 21 -42
-2z"/>
<path d="M10 6570 c0 -5 7 -10 16 -10 8 0 12 5 9 10 -3 6 -10 10 -16 10 -5 0
-9 -4 -9 -10z"/>
<path d="M85 6570 c3 -5 13 -10 21 -10 8 0 14 5 14 10 0 6 -9 10 -21 10 -11 0
-17 -4 -14 -10z"/>
<path d="M280 6563 c0 -11 7 -14 22 -10 12 3 30 2 40 -4 10 -6 18 -6 18 -1 0
5 -18 14 -40 20 -33 8 -40 7 -40 -5z"/>
<path d="M138 6563 c7 -3 16 -2 19 1 4 3 -2 6 -13 5 -11 0 -14 -3 -6 -6z"/>
<path d="M170 6560 c0 -5 9 -10 21 -10 11 0 17 5 14 10 -3 6 -13 10 -21 10 -8
0 -14 -4 -14 -10z"/>
<path d="M529 6556 c16 -19 44 -21 39 -3 -3 6 -15 14 -28 15 -21 3 -22 2 -11
-12z"/>
<path d="M12040 6555 c7 -8 23 -14 36 -13 32 3 11 28 -23 28 -21 0 -23 -2 -13
-15z"/>
<path d="M11684 6549 c-8 -14 11 -33 25 -25 6 4 11 11 11 16 0 13 -29 20 -36
9z"/>
<path d="M8336 6533 c-6 -14 -5 -15 5 -6 7 7 10 15 7 18 -3 3 -9 -2 -12 -12z"/>
<path d="M90 6522 c18 -15 38 -20 73 -20 64 2 56 23 -9 24 -27 0 -58 4 -69 8
-16 6 -15 4 5 -12z"/>
<path d="M7 6523 c-4 -3 -7 -11 -7 -17 0 -6 5 -5 12 2 6 6 9 14 7 17 -3 3 -9
2 -12 -2z"/>
<path d="M320 6525 c0 -2 10 -10 23 -16 20 -11 21 -11 8 4 -13 16 -31 23 -31
12z"/>
<path d="M0 6469 c0 -5 5 -7 10 -4 5 3 10 8 10 11 0 2 -4 4 -10 4 -5 0 -10 -5
-10 -11z"/>
<path d="M110 6476 c0 -2 7 -7 16 -10 8 -3 12 -2 9 4 -6 10 -25 14 -25 6z"/>
<path d="M210 6469 c0 -5 5 -7 10 -4 6 3 10 8 10 11 0 2 -4 4 -10 4 -5 0 -10
-5 -10 -11z"/>
<path d="M300 6465 c7 -8 16 -15 21 -15 5 0 6 7 3 15 -4 8 -13 15 -21 15 -13
0 -13 -3 -3 -15z"/>
<path d="M585 6460 c3 -5 8 -10 11 -10 2 0 4 5 4 10 0 6 -5 10 -11 10 -5 0 -7
-4 -4 -10z"/>
<path d="M115 6420 c4 -6 11 -8 16 -5 14 9 11 15 -7 15 -8 0 -12 -5 -9 -10z"/>
<path d="M185 6420 c11 -5 27 -9 35 -9 13 -1 13 0 0 9 -8 5 -24 9 -35 9 l-20
0 20 -9z"/>
<path d="M276 6415 c4 -8 10 -12 15 -9 11 6 2 24 -11 24 -5 0 -7 -7 -4 -15z"/>
<path d="M528 6418 c12 -12 65 -21 58 -9 -3 5 -19 11 -36 13 -17 3 -27 1 -22
-4z"/>
<path d="M468 6413 c7 -3 16 -2 19 1 4 3 -2 6 -13 5 -11 0 -14 -3 -6 -6z"/>
<path d="M610 6411 c0 -5 11 -11 25 -13 20 -4 23 -3 14 8 -13 16 -39 19 -39 5z"/>
<path d="M8510 6340 c0 -5 5 -10 11 -10 5 0 7 5 4 10 -3 6 -8 10 -11 10 -2 0
-4 -4 -4 -10z"/>
<path d="M8513 6285 c-7 -8 -13 -18 -13 -23 0 -9 43 -42 55 -42 11 0 1 54 -12
68 -14 15 -15 15 -30 -3z"/>
<path d="M10793 6293 c15 -2 39 -2 55 0 15 2 2 4 -28 4 -30 0 -43 -2 -27 -4z"/>
<path d="M10913 6283 c9 -2 23 -2 30 0 6 3 -1 5 -18 5 -16 0 -22 -2 -12 -5z"/>
<path d="M117 6273 c18 -2 50 -2 70 0 21 2 7 4 -32 4 -38 0 -55 -2 -38 -4z"/>
<path d="M308 6273 c12 -2 30 -2 40 0 9 3 -1 5 -23 4 -22 0 -30 -2 -17 -4z"/>
<path d="M488 6273 c6 -2 18 -2 25 0 6 3 1 5 -13 5 -14 0 -19 -2 -12 -5z"/>
<path d="M11532 6220 c0 -14 2 -19 5 -12 2 6 2 18 0 25 -3 6 -5 1 -5 -13z"/>
<path d="M8483 6175 c0 -22 2 -30 4 -17 2 12 2 30 0 40 -3 9 -5 -1 -4 -23z"/>
<path d="M637 6173 c18 -2 50 -2 70 0 21 2 7 4 -32 4 -38 0 -55 -2 -38 -4z"/>
<path d="M308 6163 c12 -2 30 -2 40 0 9 3 -1 5 -23 4 -22 0 -30 -2 -17 -4z"/>
<path d="M138 6153 c6 -2 18 -2 25 0 6 3 1 5 -13 5 -14 0 -19 -2 -12 -5z"/>
<path d="M83 6052 c-51 -2 -83 -7 -83 -14 0 -7 21 -8 62 -4 35 3 108 7 163 7
55 1 109 6 120 10 19 8 -58 8 -262 1z"/>
<path d="M878 5828 c5 -5 16 -8 23 -6 8 3 3 7 -10 11 -17 4 -21 3 -13 -5z"/>
<path d="M8490 5823 c0 -10 69 -103 77 -103 2 0 -6 18 -18 40 -24 43 -59 80
-59 63z"/>
<path d="M862 5769 c2 -6 7 -10 11 -10 4 1 16 1 28 1 11 0 17 5 14 10 -8 14
-58 13 -53 -1z"/>
<path d="M3950 5295 c0 -5 5 -17 10 -25 5 -8 10 -10 10 -5 0 6 -5 17 -10 25
-5 8 -10 11 -10 5z"/>
<path d="M5307 914 c-4 -4 -7 -31 -7 -59 0 -35 -5 -57 -16 -65 -8 -8 -14 -9
-13 -4 4 21 -2 44 -10 44 -11 0 -51 -80 -51 -101 0 -8 -9 -20 -20 -27 -13 -8
-20 -23 -20 -45 0 -28 -4 -33 -22 -33 -17 1 -29 -11 -51 -54 -15 -30 -32 -71
-37 -90 -14 -59 -44 -131 -88 -213 -23 -43 -42 -85 -42 -93 0 -8 -9 -32 -20
-54 -11 -22 -20 -48 -20 -59 0 -11 -7 -24 -16 -29 -13 -7 -11 -11 13 -20 36
-15 450 -11 477 5 12 7 15 13 7 17 -8 5 -8 13 -1 27 6 11 13 57 16 102 3 45
10 86 15 91 12 13 12 86 -1 86 -5 0 -10 -12 -10 -26 0 -14 -6 -38 -14 -52 -8
-15 -19 -38 -24 -52 l-11 -25 0 30 c0 17 6 57 15 90 23 95 72 400 79 490 2 28
5 55 7 61 1 7 -1 13 -7 14 -5 0 -15 -23 -21 -52 -7 -29 -17 -66 -23 -82 -11
-26 -18 -79 -30 -210 0 -8 -8 -16 -16 -19 -11 -5 -13 0 -8 23 3 18 1 30 -5 30
-12 0 -22 -24 -22 -56 0 -26 -28 -89 -36 -81 -6 5 22 205 37 267 16 69 22 161
12 198 -4 18 -12 30 -16 26z"/>
<path d="M1675 615 c-28 -31 -68 -75 -90 -100 -22 -24 -63 -70 -91 -102 -29
-32 -88 -100 -133 -151 -45 -50 -86 -92 -92 -92 -5 0 -9 -5 -9 -11 0 -16 -67
-89 -74 -81 -3 3 1 12 9 21 44 48 53 60 56 70 4 11 42 57 117 140 47 54 51 66
22 74 -13 3 -20 0 -20 -10 0 -8 -4 -12 -8 -9 -5 3 -14 -4 -22 -14 -8 -10 -17
-17 -22 -14 -4 3 -8 1 -8 -4 0 -5 -12 -18 -27 -28 l-28 -18 28 37 c15 19 27
39 27 43 0 4 8 13 18 21 15 13 13 14 -23 8 -21 -4 -47 -15 -56 -26 -9 -10 -24
-19 -33 -19 -10 0 -15 -3 -13 -7 6 -10 -19 -34 -26 -27 -3 3 -8 -4 -12 -15 -3
-12 -12 -21 -18 -21 -7 0 -47 -34 -89 -75 -42 -41 -82 -75 -88 -75 -6 0 6 23
27 50 20 28 41 50 45 50 17 0 7 18 -12 23 -16 4 -27 -4 -46 -33 -15 -22 -31
-37 -39 -34 -7 3 -20 -4 -28 -16 l-15 -21 -14 20 c-14 20 -18 18 -102 -65 -48
-48 -85 -88 -84 -90 7 -6 516 -7 527 0 6 4 20 2 32 -5 17 -8 31 -8 60 0 24 7
45 8 56 3 10 -5 56 -6 103 -3 49 4 92 3 101 -2 10 -6 30 -6 55 -1 30 8 44 18
60 48 12 21 35 52 51 70 16 17 35 46 42 64 7 17 17 32 22 32 5 0 9 5 9 12 0 6
7 18 15 27 51 55 79 91 97 126 11 22 30 54 43 70 27 36 59 104 53 110 -3 3
-19 -14 -36 -38 -17 -23 -47 -59 -66 -80 -20 -21 -36 -40 -36 -41 0 -4 -30
-40 -129 -151 -44 -50 -81 -95 -81 -102 0 -6 -18 -33 -40 -58 -22 -25 -40 -50
-40 -56 0 -5 -7 -9 -15 -9 -21 0 -19 6 15 41 23 25 29 39 28 74 -1 43 5 55 52
104 14 14 36 48 48 74 13 27 32 58 43 70 13 14 15 23 8 28 -8 4 -5 13 7 26 11
11 20 26 22 34 2 8 10 21 18 30 8 8 14 19 14 22 0 4 -17 -12 -37 -35 -21 -24
-40 -45 -43 -48 -3 -3 -46 -50 -95 -105 -50 -55 -93 -102 -97 -103 -5 -2 -8
-9 -8 -16 0 -6 -29 -40 -65 -76 -35 -35 -63 -66 -61 -68 2 -2 -7 -15 -20 -29
-18 -20 -27 -24 -36 -15 -8 8 -8 15 2 26 7 9 16 14 20 11 10 -6 50 47 50 67 1
7 28 45 60 83 33 39 84 102 113 140 30 39 64 79 77 90 12 11 28 32 36 47 13
24 13 28 0 28 -7 0 -22 -12 -31 -27 -23 -35 -98 -108 -107 -105 -5 1 -8 -4 -8
-12 0 -8 -52 -65 -115 -127 -63 -62 -115 -119 -115 -125 0 -13 -95 -104 -107
-104 -4 1 3 10 16 20 13 11 20 20 16 20 -4 0 5 14 20 32 19 22 23 34 15 36 -7
3 -16 -2 -21 -9 -13 -24 -59 -74 -59 -65 0 11 59 86 109 138 22 24 37 34 42
27 5 -8 8 -8 13 0 4 6 2 11 -3 11 -20 0 -11 20 28 63 71 77 275 315 299 349
28 39 -6 15 -53 -37z m-785 -466 c0 -14 -56 -69 -70 -69 -18 0 -11 15 21 48
33 33 49 40 49 21z m680 -62 c0 -2 -10 -12 -22 -23 l-23 -19 19 23 c18 21 26
27 26 19z"/>
<path d="M0 644 c0 -8 5 -12 10 -9 6 4 8 11 5 16 -9 14 -15 11 -15 -7z"/>
<path d="M2055 600 c-10 -11 -13 -20 -8 -20 13 0 38 29 31 35 -3 3 -13 -4 -23
-15z"/>
<path d="M935 569 c-11 -17 1 -21 15 -4 8 9 8 15 2 15 -6 0 -14 -5 -17 -11z"/>
<path d="M1540 539 c-14 -18 -36 -41 -49 -53 -30 -27 -74 -96 -67 -104 7 -6
14 2 77 88 23 30 50 65 62 78 11 12 16 22 11 22 -5 0 -20 -14 -34 -31z"/>
<path d="M11 521 c-7 -5 -12 -14 -10 -20 3 -7 11 -3 21 9 18 21 13 26 -11 11z"/>
<path d="M738 378 c-90 -83 -185 -173 -212 -200 -53 -51 -66 -57 -66 -33 0 8
5 15 10 15 6 0 10 16 10 35 0 28 -4 35 -20 35 -11 0 -20 -4 -20 -10 0 -5 -9
-10 -20 -10 -11 0 -20 -4 -20 -10 0 -5 -7 -10 -15 -10 -8 0 -24 -10 -37 -23
-14 -14 -34 -22 -50 -22 -26 2 -33 -12 -13 -28 6 -5 1 -6 -10 -3 -22 6 -51
-27 -39 -45 7 -11 -13 -39 -28 -39 -6 0 -8 7 -4 15 8 21 -8 19 -28 -4 -16 -18
-16 -19 16 -24 80 -15 473 -8 473 8 0 6 18 28 38 50 21 22 51 54 68 72 39 42
18 56 -24 15 -18 -16 -42 -33 -54 -37 -13 -3 -23 -13 -23 -21 0 -8 -6 -14 -14
-14 -8 0 -23 -11 -33 -23 -10 -13 -31 -26 -46 -29 -35 -7 -35 5 1 23 30 15 52
35 68 65 6 10 21 24 33 29 17 8 21 17 19 40 -2 23 2 32 20 40 12 5 22 15 22
22 0 21 -29 15 -52 -12 -12 -14 -25 -25 -30 -25 -14 0 31 58 126 165 130 144
130 145 123 145 -3 0 -79 -68 -169 -152z"/>
<path d="M3982 500 c0 -14 2 -19 5 -12 2 6 2 18 0 25 -3 6 -5 1 -5 -13z"/>
<path d="M1390 485 c-7 -8 -17 -12 -24 -8 -6 3 -8 3 -4 -2 4 -4 3 -14 -3 -22
-6 -7 -7 -13 -2 -13 13 0 58 49 51 55 -3 3 -11 -1 -18 -10z"/>
<path d="M2096 493 c-9 -10 -7 -25 3 -19 5 4 12 0 14 -6 4 -8 6 -7 6 4 1 19
-13 31 -23 21z"/>
<path d="M394 477 c-6 -7 -51 -48 -100 -92 -48 -44 -109 -99 -134 -122 -25
-23 -71 -65 -102 -94 -51 -47 -58 -58 -58 -91 0 -34 2 -37 22 -29 13 4 27 18
33 29 5 12 16 22 23 22 7 0 17 11 22 25 5 14 14 25 20 25 7 0 33 20 59 45 37
35 47 51 44 69 -5 24 18 49 25 28 2 -8 7 -8 17 1 9 8 10 14 2 19 -8 5 -6 12 4
25 9 10 19 26 22 36 4 9 12 17 20 17 7 0 35 23 62 50 27 28 45 50 40 50 -6 -1
-15 -6 -21 -13z m-184 -226 c0 -12 -20 -25 -27 -18 -7 7 6 27 18 27 5 0 9 -4
9 -9z"/>
<path d="M3955 465 c-3 -11 -10 -29 -15 -41 -4 -11 -5 -26 -1 -33 9 -14 36 61
28 80 -3 10 -7 8 -12 -6z"/>
<path d="M2255 445 c-18 -19 -30 -45 -22 -45 13 0 48 41 45 53 -2 10 -8 8 -23
-8z"/>
<path d="M2038 431 c-37 -31 -84 -80 -115 -118 -12 -16 -37 -46 -55 -68 -47
-55 -91 -113 -104 -136 -6 -11 -25 -35 -42 -54 -18 -19 -32 -39 -32 -45 0 -8
66 -9 223 -4 122 3 269 6 327 6 116 -1 160 9 153 37 -4 17 40 115 57 126 6 3
10 14 10 23 -1 15 -2 14 -12 -2 -6 -11 -33 -41 -59 -68 -27 -27 -55 -58 -62
-68 -7 -10 -26 -22 -42 -26 -30 -7 -30 -7 -13 17 62 90 109 171 103 177 -4 4
-14 -3 -22 -15 -8 -12 -26 -34 -39 -50 -14 -15 -31 -40 -39 -54 -13 -24 -45
-47 -45 -33 0 3 18 31 40 63 45 64 47 71 23 72 -11 0 -13 3 -5 6 6 2 10 9 7
13 -3 5 -2 17 3 27 5 10 17 36 28 58 23 46 22 94 -2 74 -8 -6 -14 -17 -14 -24
0 -7 -6 -15 -14 -18 -8 -3 -39 -39 -70 -79 -78 -104 -132 -163 -139 -152 -7
12 27 87 48 104 9 8 30 39 46 69 16 31 36 66 45 79 16 21 15 22 -5 22 -11 0
-21 -4 -21 -10 0 -5 -6 -10 -14 -10 -8 0 -22 -7 -31 -16 -12 -13 -22 -14 -43
-6 -15 6 -35 13 -44 16 -16 5 -16 9 7 42 14 20 25 40 25 44 0 15 -32 5 -62
-19z m182 -315 c0 -3 -4 -8 -10 -11 -5 -3 -10 -1 -10 4 0 6 5 11 10 11 6 0 10
-2 10 -4z m8 -68 c-2 -6 -10 -14 -16 -16 -7 -2 -10 2 -6 12 7 18 28 22 22 4z"/>
<path d="M140 434 c0 -14 3 -14 15 -4 8 7 15 14 15 16 0 2 -7 4 -15 4 -8 0
-15 -7 -15 -16z"/>
<path d="M20 419 c0 -5 5 -7 10 -4 6 3 10 8 10 11 0 2 -4 4 -10 4 -5 0 -10 -5
-10 -11z"/>
<path d="M485 410 c-3 -5 -2 -10 4 -10 5 0 13 5 16 10 3 6 2 10 -4 10 -5 0
-13 -4 -16 -10z"/>
<path d="M53 359 c-55 -52 -64 -69 -37 -69 8 0 12 5 9 10 -3 6 -1 10 4 10 11
0 83 74 89 91 8 21 -17 5 -65 -42z"/>
<path d="M163 383 c-32 -29 -76 -67 -130 -109 -30 -23 -33 -31 -33 -77 l0 -52
55 59 c29 33 51 64 48 69 -3 6 -1 7 5 3 16 -10 24 11 12 34 -12 22 -1 27 17 9
17 -17 33 -1 33 31 0 17 7 33 17 39 10 5 15 12 12 15 -3 4 -19 -6 -36 -21z"/>
<path d="M411 337 c-24 -29 -46 -57 -50 -62 -3 -6 -25 -23 -48 -39 -24 -16
-43 -35 -43 -42 0 -7 -9 -16 -20 -19 -11 -3 -26 -12 -32 -18 -7 -7 -36 -29
-63 -49 -28 -20 -59 -46 -69 -57 -12 -13 -33 -22 -55 -22 -30 -2 -32 -3 -8 -6
15 -2 27 -8 27 -13 0 -12 70 0 96 17 11 7 27 25 35 41 8 15 20 31 26 35 7 4
13 14 13 22 0 9 6 12 15 9 9 -4 19 3 26 20 7 14 18 26 25 26 7 0 14 4 16 9 2
5 40 48 86 95 75 78 95 107 75 105 -5 0 -28 -24 -52 -52z"/>
<path d="M1061 333 c-48 -49 -53 -56 -37 -65 10 -5 18 -8 19 -6 15 28 27 43
35 41 6 -1 13 4 16 12 3 8 0 15 -6 15 -7 0 -7 4 1 14 7 8 21 12 33 8 17 -4 20
-2 15 12 -4 10 -7 20 -7 22 0 13 -21 -3 -69 -53z"/>
<path d="M5411 374 c0 -11 3 -14 6 -6 3 7 2 16 -1 19 -3 4 -6 -2 -5 -13z"/>
<path d="M11150 372 c6 -13 14 -21 18 -18 3 4 -2 14 -12 24 -18 16 -18 16 -6
-6z"/>
<path d="M3910 370 c0 -5 5 -10 10 -10 6 0 10 5 10 10 0 6 -4 10 -10 10 -5 0
-10 -4 -10 -10z"/>
<path d="M4701 364 c0 -11 3 -14 6 -6 3 7 2 16 -1 19 -3 4 -6 -2 -5 -13z"/>
<path d="M892 309 c-55 -54 -73 -79 -57 -79 2 0 24 21 47 47 24 26 51 55 61
66 10 10 17 20 15 23 -2 2 -32 -24 -66 -57z"/>
<path d="M11181 320 c15 -30 39 -55 39 -41 0 5 -12 23 -26 38 -24 27 -25 27
-13 3z"/>
<path d="M4670 274 c-7 -19 -10 -38 -7 -41 6 -5 37 50 37 67 0 24 -19 7 -30
-26z"/>
<path d="M2623 278 c-6 -7 -20 -32 -33 -55 -13 -24 -27 -43 -32 -43 -4 0 -14
-12 -22 -27 -8 -16 -37 -51 -64 -79 -44 -47 -46 -53 -30 -63 16 -10 25 -5 58
29 22 23 40 43 40 46 0 11 43 99 51 104 4 3 16 24 25 45 9 22 21 43 28 47 8 6
8 8 0 8 -6 0 -16 -6 -21 -12z"/>
<path d="M12166 242 c20 -29 39 -51 41 -48 5 5 0 13 -47 66 -28 31 -27 29 6
-18z"/>
<path d="M2327 253 c-11 -13 -17 -27 -14 -30 3 -2 13 7 23 21 22 34 15 42 -9
9z"/>
<path d="M4750 258 c-12 -22 -12 -22 6 -6 10 10 15 20 12 24 -4 3 -12 -5 -18
-18z"/>
<path d="M12255 260 c10 -11 20 -18 23 -15 7 6 -18 35 -31 35 -5 0 -2 -9 8
-20z"/>
<path d="M2789 257 c-9 -7 -29 -36 -44 -65 -15 -28 -31 -52 -37 -52 -5 0 -6
-4 -3 -10 3 -5 1 -10 -4 -10 -6 0 -11 -9 -11 -19 0 -12 -9 -23 -22 -27 -13 -4
-28 -13 -33 -21 -6 -8 -27 -18 -45 -22 -34 -8 -33 -8 22 -16 65 -8 78 -3 78
30 0 13 5 27 10 30 6 3 19 23 29 43 10 20 33 63 50 95 17 31 29 57 28 57 -1 0
-9 -6 -18 -13z"/>
<path d="M3870 260 c0 -5 7 -10 15 -10 8 0 15 5 15 10 0 6 -7 10 -15 10 -8 0
-15 -4 -15 -10z"/>
<path d="M11230 249 c0 -14 41 -72 46 -66 5 5 -35 77 -42 77 -2 0 -4 -5 -4
-11z"/>
<path d="M3833 223 c-7 -15 -13 -32 -13 -39 0 -18 -49 -124 -65 -140 -7 -8
-22 -14 -32 -15 -13 -1 -11 -3 7 -9 51 -16 59 -12 86 47 14 32 30 65 35 73 10
16 10 17 26 67 9 25 8 33 -4 37 -23 9 -27 7 -40 -21z"/>
<path d="M3339 213 c-9 -10 -35 -49 -57 -88 -22 -38 -48 -78 -56 -88 -22 -23
-1 -32 45 -19 19 6 26 11 17 11 -10 1 -18 3 -18 7 0 15 44 100 56 107 8 4 14
19 14 32 0 13 5 25 12 27 6 2 9 10 7 17 -3 9 -9 7 -20 -6z"/>
<path d="M3645 220 c-22 -35 -104 -204 -100 -208 2 -2 14 0 27 4 13 4 34 7 48
6 l25 -1 -25 8 c-33 10 -29 47 11 119 17 30 29 61 27 70 -3 15 -5 15 -13 2z"/>
<path d="M12075 200 c3 -5 8 -10 11 -10 2 0 4 5 4 10 0 6 -5 10 -11 10 -5 0
-7 -4 -4 -10z"/>
<path d="M3446 178 c-8 -13 -17 -35 -20 -51 -2 -15 -12 -34 -20 -43 -9 -8 -16
-22 -16 -30 0 -8 -7 -17 -15 -20 -15 -6 -11 -24 5 -24 13 0 99 180 89 186 -4
2 -15 -6 -23 -18z"/>
<path d="M12310 191 c0 -6 4 -13 10 -16 6 -3 7 1 4 9 -7 18 -14 21 -14 7z"/>
<path d="M2894 173 c-4 -13 -11 -20 -20 -16 -8 3 -14 0 -14 -5 0 -6 -20 -30
-45 -53 -25 -23 -45 -48 -45 -56 0 -7 -5 -13 -12 -13 -9 0 -9 -3 -1 -11 8 -8
29 -8 65 -3 32 5 44 10 30 12 -23 3 -23 4 18 79 23 41 39 78 35 81 -3 3 -8 -3
-11 -15z"/>
<path d="M4641 167 c-7 -14 -11 -31 -8 -39 3 -8 9 -2 16 16 15 38 9 55 -8 23z"/>
<path d="M12542 169 c2 -7 10 -15 17 -17 8 -3 12 1 9 9 -2 7 -10 15 -17 17 -8
3 -12 -1 -9 -9z"/>
<path d="M3890 134 c-17 -49 -7 -53 13 -4 8 22 12 40 7 40 -5 0 -14 -16 -20
-36z"/>
<path d="M12226 158 c5 -7 12 -17 16 -23 5 -5 25 -32 46 -60 43 -58 65 -78 70
-64 2 6 -11 24 -30 41 -18 18 -44 50 -58 73 -14 22 -31 41 -38 43 -9 1 -11 -2
-6 -10z"/>
<path d="M3500 149 c0 -5 5 -7 10 -4 6 3 10 8 10 11 0 2 -4 4 -10 4 -5 0 -10
-5 -10 -11z"/>
<path d="M11301 137 c7 -15 16 -27 21 -27 4 0 8 -6 8 -12 0 -13 39 -68 40 -57
0 12 -51 97 -66 110 -13 11 -14 9 -3 -14z"/>
<path d="M3709 107 c-10 -23 -19 -50 -23 -60 -3 -9 -10 -17 -16 -17 -5 0 -10
-4 -10 -10 0 -17 30 -11 36 8 3 9 13 33 22 52 17 37 23 70 13 70 -3 0 -13 -19
-22 -43z"/>
<path d="M12350 145 c0 -3 5 -11 10 -18 6 -7 17 -21 26 -32 13 -17 13 -16 0
12 -15 29 -36 52 -36 38z"/>
<path d="M3058 108 c-38 -51 -41 -58 -24 -58 9 0 16 5 16 12 0 6 11 26 26 45
14 18 21 33 16 33 -5 0 -21 -15 -34 -32z"/>
<path d="M4386 97 c-9 -23 -16 -48 -16 -54 0 -6 -6 -14 -12 -16 -8 -4 -7 -6 4
-6 11 -1 21 16 34 54 20 67 14 83 -10 22z"/>
<path d="M11676 132 c-3 -5 4 -18 16 -28 11 -11 27 -34 35 -52 12 -28 18 -32
52 -32 31 0 39 3 37 17 -2 9 -9 19 -16 21 -9 3 -11 -1 -7 -12 4 -9 2 -16 -3
-16 -6 0 -10 9 -10 20 0 11 -6 20 -13 20 -7 0 -29 16 -49 35 -20 20 -39 32
-42 27z"/>
<path d="M12570 136 c0 -9 44 -81 53 -87 5 -4 7 -11 3 -17 -7 -11 16 -22 46
-22 21 0 21 0 -1 23 -12 12 -40 41 -62 65 -21 24 -39 41 -39 38z"/>
<path d="M3474 103 c-24 -35 -46 -85 -40 -90 8 -8 46 8 41 17 -3 5 1 28 9 51
18 52 15 59 -10 22z"/>
<path d="M12680 121 c0 -5 16 -26 35 -47 19 -20 35 -40 35 -44 0 -4 11 -12 25
-18 39 -18 30 0 -32 61 -59 60 -63 63 -63 48z"/>
<path d="M3110 100 c0 -11 -3 -19 -7 -19 -22 4 -33 -3 -33 -20 0 -16 -8 -20
-37 -23 -20 -2 -38 -8 -40 -15 -4 -12 111 -12 124 0 3 4 1 7 -6 7 -8 0 -7 9 4
30 17 33 20 60 5 60 -5 0 -10 -9 -10 -20z"/>
<path d="M5460 96 c0 -14 -4 -36 -10 -50 -10 -28 -2 -39 20 -25 10 6 11 9 3 9
-9 0 -11 13 -6 45 3 25 3 45 -1 45 -3 0 -6 -11 -6 -24z"/>
<path d="M4669 70 c-7 -22 -17 -40 -23 -40 -7 0 -7 -3 0 -10 20 -20 42 0 40
36 -1 19 2 34 6 34 5 0 8 5 8 10 0 26 -20 6 -31 -30z"/>
<path d="M10899 61 c7 -12 9 -26 6 -31 -4 -6 7 -10 25 -10 40 0 36 18 -10 44
l-32 19 11 -22z"/>
<path d="M12110 62 c0 -12 39 -52 50 -52 15 0 12 7 -15 35 -27 26 -35 30 -35
17z"/>
<path d="M12214 46 c1 -19 8 -26 30 -30 37 -8 45 0 20 19 -43 34 -52 36 -50
11z"/>
<path d="M11160 38 c0 -9 5 -20 10 -23 13 -8 13 5 0 25 -8 13 -10 13 -10 -2z"/>
<path d="M2910 30 c-8 -5 -12 -12 -8 -15 10 -10 49 5 43 16 -8 11 -16 11 -35
-1z"/>
<path d="M3841 31 c-21 -14 1 -20 39 -11 19 4 27 8 18 9 -9 1 -22 3 -30 6 -7
3 -19 1 -27 -4z"/>
<path d="M4422 29 c2 -6 7 -10 11 -10 4 1 21 1 39 1 40 0 34 6 -15 13 -24 4
-37 2 -35 -4z"/>
<path d="M11456 31 c-3 -5 1 -12 10 -15 20 -8 29 -1 19 13 -8 13 -22 14 -29 2z"/>
<path d="M12432 28 c6 -18 28 -21 28 -4 0 9 -7 16 -16 16 -9 0 -14 -5 -12 -12z"/>
<path d="M4570 20 c0 -5 5 -10 10 -10 6 0 10 5 10 10 0 6 -4 10 -10 10 -5 0
-10 -4 -10 -10z"/>
<path d="M10503 23 c9 -2 25 -2 35 0 9 3 1 5 -18 5 -19 0 -27 -2 -17 -5z"/>
<path d="M10631 26 c11 -9 69 -14 69 -6 0 6 -16 10 -37 10 -20 0 -34 -2 -32
-4z"/>
<path d="M10780 26 c0 -9 30 -14 35 -6 4 6 -3 10 -14 10 -12 0 -21 -2 -21 -4z"/>
<path d="M10858 18 c9 -9 15 -9 24 0 9 9 7 12 -12 12 -19 0 -21 -3 -12 -12z"/>
<path d="M11370 20 c0 -5 4 -10 9 -10 6 0 13 5 16 10 3 6 -1 10 -9 10 -9 0
-16 -4 -16 -10z"/>
<path d="M11550 26 c0 -2 7 -7 16 -10 8 -3 12 -2 9 4 -6 10 -25 14 -25 6z"/>
<path d="M11890 20 c0 -5 5 -10 11 -10 5 0 7 5 4 10 -3 6 -8 10 -11 10 -2 0
-4 -4 -4 -10z"/>
<path d="M12031 26 c11 -9 69 -14 69 -6 0 6 -16 10 -37 10 -20 0 -34 -2 -32
-4z"/>
</g>
</svg>
